<?xml version="1.0" encoding="utf-8" standalone="no"?>
<!DOCTYPE svg PUBLIC "-//W3C//DTD SVG 1.1//EN"
  "http://www.w3.org/Graphics/SVG/1.1/DTD/svg11.dtd">
<!-- Created with matplotlib (https://matplotlib.org/) -->
<svg height="324pt" version="1.1" viewBox="0 0 576 324" width="576pt" xmlns="http://www.w3.org/2000/svg" xmlns:xlink="http://www.w3.org/1999/xlink">
 <metadata>
  <rdf:RDF xmlns:cc="http://creativecommons.org/ns#" xmlns:dc="http://purl.org/dc/elements/1.1/" xmlns:rdf="http://www.w3.org/1999/02/22-rdf-syntax-ns#">
   <cc:Work>
    <dc:type rdf:resource="http://purl.org/dc/dcmitype/StillImage"/>
    <dc:date>2021-07-15T15:46:41.541408</dc:date>
    <dc:format>image/svg+xml</dc:format>
    <dc:creator>
     <cc:Agent>
      <dc:title>Matplotlib v3.3.3, https://matplotlib.org/</dc:title>
     </cc:Agent>
    </dc:creator>
   </cc:Work>
  </rdf:RDF>
 </metadata>
 <defs>
  <style type="text/css">*{stroke-linecap:butt;stroke-linejoin:round;}</style>
 </defs>
 <g id="figure_1">
  <g id="patch_1">
   <path d="M 0 324 
L 576 324 
L 576 0 
L 0 0 
z
" style="fill:#ffffff;"/>
  </g>
  <g id="axes_1">
   <g id="patch_2">
    <path d="M 65.315625 244.795289 
L 565.2 244.795289 
L 565.2 39.3555 
L 65.315625 39.3555 
z
" style="fill:#ffffff;"/>
   </g>
   <g id="PolyCollection_1">
    <defs>
     <path d="M 117.200956 -94.168262 
L 113.407169 -94.168262 
L 112.858245 -96.000645 
L 112.185935 -97.833028 
L 111.373411 -99.665411 
L 110.404596 -101.497795 
L 109.265141 -103.330178 
L 107.94352 -105.162561 
L 106.432219 -106.994944 
L 104.728932 -108.827328 
L 102.837688 -110.659711 
L 100.769813 -112.492094 
L 98.544639 -114.324477 
L 96.189855 -116.156861 
L 93.741426 -117.989244 
L 91.243034 -119.821627 
L 88.745004 -121.65401 
L 86.302741 -123.486394 
L 83.974732 -125.318777 
L 81.820208 -127.15116 
L 79.896595 -128.983543 
L 78.256912 -130.815927 
L 76.947279 -132.64831 
L 76.004719 -134.480693 
L 75.455379 -136.313076 
L 75.313313 -138.14546 
L 75.579895 -139.977843 
L 76.243908 -141.810226 
L 77.282276 -143.642609 
L 78.661385 -145.474992 
L 80.338884 -147.307376 
L 82.265837 -149.139759 
L 84.389062 -150.972142 
L 86.653516 -152.804525 
L 89.004568 -154.636909 
L 91.390046 -156.469292 
L 93.761952 -158.301675 
L 96.077786 -160.134058 
L 98.301452 -161.966442 
L 100.403749 -163.798825 
L 102.362467 -165.631208 
L 104.162152 -167.463591 
L 105.7936 -169.295975 
L 107.253145 -171.128358 
L 108.541825 -172.960741 
L 109.664477 -174.793124 
L 110.628836 -176.625508 
L 111.444672 -178.457891 
L 112.12301 -180.290274 
L 112.675455 -182.122657 
L 113.113631 -183.955041 
L 113.44875 -185.787424 
L 113.691302 -187.619807 
L 113.850853 -189.45219 
L 113.935951 -191.284574 
L 113.954118 -193.116957 
L 113.911911 -194.94934 
L 113.815036 -196.781723 
L 113.668508 -198.614107 
L 113.476824 -200.44649 
L 113.244155 -202.278873 
L 112.97453 -204.111256 
L 112.67202 -205.94364 
L 112.34089 -207.776023 
L 111.985737 -209.608406 
L 111.611597 -211.440789 
L 111.224017 -213.273173 
L 110.829089 -215.105556 
L 110.43345 -216.937939 
L 110.044233 -218.770322 
L 109.668976 -220.602706 
L 109.315488 -222.435089 
L 108.991667 -224.267472 
L 108.705276 -226.099855 
L 108.463693 -227.932239 
L 108.273629 -229.764622 
L 108.140845 -231.597005 
L 108.069875 -233.429388 
L 108.063773 -235.261772 
L 108.123919 -237.094155 
L 108.249882 -238.926538 
L 108.439366 -240.758921 
L 108.688252 -242.591305 
L 108.990725 -244.423688 
L 109.339504 -246.256071 
L 109.726136 -248.088454 
L 110.141357 -249.920837 
L 110.575488 -251.753221 
L 111.018844 -253.585604 
L 111.46212 -255.417987 
L 111.896746 -257.25037 
L 112.31517 -259.082754 
L 112.711079 -260.915137 
L 113.079523 -262.74752 
L 113.416969 -264.579903 
L 113.721268 -266.412287 
L 113.991556 -268.24467 
L 114.228106 -270.077053 
L 114.432141 -271.909436 
L 114.60563 -273.74182 
L 114.751078 -275.574203 
L 115.857047 -275.574203 
L 115.857047 -275.574203 
L 116.002495 -273.74182 
L 116.175984 -271.909436 
L 116.380019 -270.077053 
L 116.616569 -268.24467 
L 116.886857 -266.412287 
L 117.191156 -264.579903 
L 117.528602 -262.74752 
L 117.897046 -260.915137 
L 118.292955 -259.082754 
L 118.711379 -257.25037 
L 119.146005 -255.417987 
L 119.589281 -253.585604 
L 120.032637 -251.753221 
L 120.466768 -249.920837 
L 120.881989 -248.088454 
L 121.268621 -246.256071 
L 121.6174 -244.423688 
L 121.919873 -242.591305 
L 122.168759 -240.758921 
L 122.358243 -238.926538 
L 122.484206 -237.094155 
L 122.544352 -235.261772 
L 122.53825 -233.429388 
L 122.46728 -231.597005 
L 122.334496 -229.764622 
L 122.144432 -227.932239 
L 121.902849 -226.099855 
L 121.616458 -224.267472 
L 121.292637 -222.435089 
L 120.939149 -220.602706 
L 120.563892 -218.770322 
L 120.174675 -216.937939 
L 119.779036 -215.105556 
L 119.384108 -213.273173 
L 118.996528 -211.440789 
L 118.622388 -209.608406 
L 118.267235 -207.776023 
L 117.936105 -205.94364 
L 117.633595 -204.111256 
L 117.36397 -202.278873 
L 117.131301 -200.44649 
L 116.939617 -198.614107 
L 116.793089 -196.781723 
L 116.696214 -194.94934 
L 116.654007 -193.116957 
L 116.672174 -191.284574 
L 116.757272 -189.45219 
L 116.916823 -187.619807 
L 117.159375 -185.787424 
L 117.494494 -183.955041 
L 117.93267 -182.122657 
L 118.485115 -180.290274 
L 119.163453 -178.457891 
L 119.979289 -176.625508 
L 120.943648 -174.793124 
L 122.0663 -172.960741 
L 123.35498 -171.128358 
L 124.814525 -169.295975 
L 126.445973 -167.463591 
L 128.245658 -165.631208 
L 130.204376 -163.798825 
L 132.306673 -161.966442 
L 134.530339 -160.134058 
L 136.846173 -158.301675 
L 139.218079 -156.469292 
L 141.603557 -154.636909 
L 143.954609 -152.804525 
L 146.219063 -150.972142 
L 148.342288 -149.139759 
L 150.269241 -147.307376 
L 151.94674 -145.474992 
L 153.325849 -143.642609 
L 154.364217 -141.810226 
L 155.02823 -139.977843 
L 155.294813 -138.14546 
L 155.152746 -136.313076 
L 154.603406 -134.480693 
L 153.660846 -132.64831 
L 152.351213 -130.815927 
L 150.71153 -128.983543 
L 148.787917 -127.15116 
L 146.633393 -125.318777 
L 144.305384 -123.486394 
L 141.863121 -121.65401 
L 139.365091 -119.821627 
L 136.866699 -117.989244 
L 134.41827 -116.156861 
L 132.063486 -114.324477 
L 129.838312 -112.492094 
L 127.770437 -110.659711 
L 125.879193 -108.827328 
L 124.175906 -106.994944 
L 122.664605 -105.162561 
L 121.342984 -103.330178 
L 120.203529 -101.497795 
L 119.234714 -99.665411 
L 118.42219 -97.833028 
L 117.74988 -96.000645 
L 117.200956 -94.168262 
z
" id="m65b2ad117f" style="stroke:#515151;stroke-opacity:0.5;stroke-width:1.5;"/>
    </defs>
    <g clip-path="url(#p4a888a2eee)">
     <use style="fill:#db8132;fill-opacity:0.5;stroke:#515151;stroke-opacity:0.5;stroke-width:1.5;" x="0" xlink:href="#m65b2ad117f" y="324"/>
    </g>
   </g>
   <g id="PolyCollection_2">
    <defs>
     <path d="M 216.500935 -123.532014 
L 214.06094 -123.532014 
L 213.478689 -125.048542 
L 212.683932 -126.56507 
L 211.629628 -128.081597 
L 210.270624 -129.598125 
L 208.568948 -131.114652 
L 206.499924 -132.63118 
L 204.058462 -134.147707 
L 201.264628 -135.664235 
L 198.167518 -137.180762 
L 194.846516 -138.69729 
L 191.409281 -140.213817 
L 187.986166 -141.730345 
L 184.721342 -143.246872 
L 181.761373 -144.7634 
L 179.242475 -146.279928 
L 177.277988 -147.796455 
L 175.947658 -149.312983 
L 175.290188 -150.82951 
L 175.300109 -152.346038 
L 175.929472 -153.862565 
L 177.094186 -155.379093 
L 178.684172 -156.89562 
L 180.575971 -158.412148 
L 182.646075 -159.928675 
L 184.783179 -161.445203 
L 186.897777 -162.96173 
L 188.927964 -164.478258 
L 190.840949 -165.994786 
L 192.630469 -167.511313 
L 194.310922 -169.027841 
L 195.909473 -170.544368 
L 197.45759 -172.060896 
L 198.983391 -173.577423 
L 200.505896 -175.093951 
L 202.031811 -176.610478 
L 203.55498 -178.127006 
L 205.05817 -179.643533 
L 206.516527 -181.160061 
L 207.901861 -182.676588 
L 209.186923 -184.193116 
L 210.348995 -185.709644 
L 211.372337 -187.226171 
L 212.249313 -188.742699 
L 212.980273 -190.259226 
L 213.572437 -191.775754 
L 214.03814 -193.292281 
L 214.392819 -194.808809 
L 214.653053 -196.325336 
L 214.834923 -197.841864 
L 214.952823 -199.358391 
L 215.018775 -200.874919 
L 215.042238 -202.391446 
L 215.030332 -203.907974 
L 214.988365 -205.424502 
L 214.92057 -206.941029 
L 214.830883 -208.457557 
L 214.723671 -209.974084 
L 214.604262 -211.490612 
L 214.479195 -213.007139 
L 214.356124 -214.523667 
L 214.243384 -216.040194 
L 214.149265 -217.556722 
L 214.081126 -219.073249 
L 214.044499 -220.589777 
L 214.042355 -222.106304 
L 214.074672 -223.622832 
L 214.138386 -225.13936 
L 214.227739 -226.655887 
L 214.334937 -228.172415 
L 214.451009 -229.688942 
L 214.566707 -231.20547 
L 214.673308 -232.721997 
L 214.763236 -234.238525 
L 214.830459 -235.755052 
L 214.870692 -237.27158 
L 214.881465 -238.788107 
L 214.862129 -240.304635 
L 214.813852 -241.821162 
L 214.739625 -243.33769 
L 214.644244 -244.854218 
L 214.534211 -246.370745 
L 214.41748 -247.887273 
L 214.302997 -249.4038 
L 214.200018 -250.920328 
L 214.117273 -252.436855 
L 214.062058 -253.953383 
L 214.039422 -255.46991 
L 214.051588 -256.986438 
L 214.097724 -258.502965 
L 214.174106 -260.019493 
L 214.274673 -261.53602 
L 214.39185 -263.052548 
L 214.517498 -264.569076 
L 214.643849 -266.085603 
L 214.764262 -267.602131 
L 214.873718 -269.118658 
L 214.969026 -270.635186 
L 215.048756 -272.151713 
L 215.112974 -273.668241 
L 215.448901 -273.668241 
L 215.448901 -273.668241 
L 215.513119 -272.151713 
L 215.592849 -270.635186 
L 215.688157 -269.118658 
L 215.797613 -267.602131 
L 215.918026 -266.085603 
L 216.044377 -264.569076 
L 216.170025 -263.052548 
L 216.287202 -261.53602 
L 216.387769 -260.019493 
L 216.464151 -258.502965 
L 216.510287 -256.986438 
L 216.522453 -255.46991 
L 216.499817 -253.953383 
L 216.444602 -252.436855 
L 216.361857 -250.920328 
L 216.258878 -249.4038 
L 216.144395 -247.887273 
L 216.027664 -246.370745 
L 215.917631 -244.854218 
L 215.82225 -243.33769 
L 215.748023 -241.821162 
L 215.699746 -240.304635 
L 215.68041 -238.788107 
L 215.691183 -237.27158 
L 215.731416 -235.755052 
L 215.798639 -234.238525 
L 215.888567 -232.721997 
L 215.995168 -231.20547 
L 216.110866 -229.688942 
L 216.226938 -228.172415 
L 216.334136 -226.655887 
L 216.423489 -225.13936 
L 216.487203 -223.622832 
L 216.51952 -222.106304 
L 216.517376 -220.589777 
L 216.480749 -219.073249 
L 216.41261 -217.556722 
L 216.318491 -216.040194 
L 216.205751 -214.523667 
L 216.08268 -213.007139 
L 215.957613 -211.490612 
L 215.838204 -209.974084 
L 215.730992 -208.457557 
L 215.641305 -206.941029 
L 215.57351 -205.424502 
L 215.531543 -203.907974 
L 215.519637 -202.391446 
L 215.5431 -200.874919 
L 215.609052 -199.358391 
L 215.726952 -197.841864 
L 215.908822 -196.325336 
L 216.169056 -194.808809 
L 216.523735 -193.292281 
L 216.989438 -191.775754 
L 217.581602 -190.259226 
L 218.312562 -188.742699 
L 219.189538 -187.226171 
L 220.21288 -185.709644 
L 221.374952 -184.193116 
L 222.660014 -182.676588 
L 224.045348 -181.160061 
L 225.503705 -179.643533 
L 227.006895 -178.127006 
L 228.530064 -176.610478 
L 230.055979 -175.093951 
L 231.578484 -173.577423 
L 233.104285 -172.060896 
L 234.652402 -170.544368 
L 236.250953 -169.027841 
L 237.931406 -167.511313 
L 239.720926 -165.994786 
L 241.633911 -164.478258 
L 243.664098 -162.96173 
L 245.778696 -161.445203 
L 247.9158 -159.928675 
L 249.985904 -158.412148 
L 251.877703 -156.89562 
L 253.467689 -155.379093 
L 254.632403 -153.862565 
L 255.261766 -152.346038 
L 255.271687 -150.82951 
L 254.614217 -149.312983 
L 253.283887 -147.796455 
L 251.3194 -146.279928 
L 248.800502 -144.7634 
L 245.840533 -143.246872 
L 242.575709 -141.730345 
L 239.152594 -140.213817 
L 235.715359 -138.69729 
L 232.394357 -137.180762 
L 229.297247 -135.664235 
L 226.503413 -134.147707 
L 224.061951 -132.63118 
L 221.992927 -131.114652 
L 220.291251 -129.598125 
L 218.932247 -128.081597 
L 217.877943 -126.56507 
L 217.083186 -125.048542 
L 216.500935 -123.532014 
z
" id="me7cc596930" style="stroke:#515151;stroke-opacity:0.5;stroke-width:1.5;"/>
    </defs>
    <g clip-path="url(#p4a888a2eee)">
     <use style="fill:#db8132;fill-opacity:0.5;stroke:#515151;stroke-opacity:0.5;stroke-width:1.5;" x="0" xlink:href="#me7cc596930" y="324"/>
    </g>
   </g>
   <g id="PolyCollection_3">
    <defs>
     <path d="M 316.215301 -138.318653 
L 314.300324 -138.318653 
L 313.811724 -139.688102 
L 313.133639 -141.057551 
L 312.221681 -142.427001 
L 311.032975 -143.79645 
L 309.531107 -145.165899 
L 307.691653 -146.535348 
L 305.507541 -147.904797 
L 302.993404 -149.274246 
L 300.188066 -150.643696 
L 297.154602 -152.013145 
L 293.977693 -153.382594 
L 290.758514 -154.752043 
L 287.607705 -156.121492 
L 284.637322 -157.490941 
L 281.952723 -158.860391 
L 279.645299 -160.22984 
L 277.786795 -161.599289 
L 276.425678 -162.968738 
L 275.585766 -164.338187 
L 275.267063 -165.707636 
L 275.448486 -167.077086 
L 276.091999 -168.446535 
L 277.147444 -169.815984 
L 278.557381 -171.185433 
L 280.261232 -172.554882 
L 282.198306 -173.924331 
L 284.309565 -175.293781 
L 286.538382 -176.66323 
L 288.83076 -178.032679 
L 291.13563 -179.402128 
L 293.405655 -180.771577 
L 295.598707 -182.141026 
L 297.679803 -183.510476 
L 299.622997 -184.879925 
L 301.41264 -186.249374 
L 303.0435 -187.618823 
L 304.51956 -188.988272 
L 305.851656 -190.357721 
L 307.054396 -191.727171 
L 308.143012 -193.09662 
L 309.130705 -194.466069 
L 310.026939 -195.835518 
L 310.836821 -197.204967 
L 311.561501 -198.574416 
L 312.199308 -199.943865 
L 312.747275 -201.313315 
L 313.202686 -202.682764 
L 313.564377 -204.052213 
L 313.833628 -205.421662 
L 314.014556 -206.791111 
L 314.114047 -208.16056 
L 314.14129 -209.53001 
L 314.107011 -210.899459 
L 314.022554 -212.268908 
L 313.898933 -213.638357 
L 313.746029 -215.007806 
L 313.572069 -216.377255 
L 313.383516 -217.746705 
L 313.18542 -219.116154 
L 312.982183 -220.485603 
L 312.778585 -221.855052 
L 312.580807 -223.224501 
L 312.397145 -224.59395 
L 312.238141 -225.9634 
L 312.11596 -227.332849 
L 312.043048 -228.702298 
L 312.030271 -230.071747 
L 312.084936 -231.441196 
L 312.209144 -232.810645 
L 312.398854 -234.180095 
L 312.643937 -235.549544 
L 312.929197 -236.918993 
L 313.236187 -238.288442 
L 313.545428 -239.657891 
L 313.838622 -241.02734 
L 314.100489 -242.39679 
L 314.319985 -243.766239 
L 314.490843 -245.135688 
L 314.611492 -246.505137 
L 314.684527 -247.874586 
L 314.715908 -249.244035 
L 314.714037 -250.613485 
L 314.688807 -251.982934 
L 314.650678 -253.352383 
L 314.609784 -254.721832 
L 314.575121 -256.091281 
L 314.553829 -257.46073 
L 314.550675 -258.830179 
L 314.567782 -260.199629 
L 314.604674 -261.569078 
L 314.658627 -262.938527 
L 314.725283 -264.307976 
L 314.799407 -265.677425 
L 314.875673 -267.046874 
L 314.949331 -268.416324 
L 315.016679 -269.785773 
L 315.075298 -271.155222 
L 315.124047 -272.524671 
L 315.162885 -273.89412 
L 315.35274 -273.89412 
L 315.35274 -273.89412 
L 315.391578 -272.524671 
L 315.440327 -271.155222 
L 315.498946 -269.785773 
L 315.566294 -268.416324 
L 315.639952 -267.046874 
L 315.716218 -265.677425 
L 315.790342 -264.307976 
L 315.856998 -262.938527 
L 315.910951 -261.569078 
L 315.947843 -260.199629 
L 315.96495 -258.830179 
L 315.961796 -257.46073 
L 315.940504 -256.091281 
L 315.905841 -254.721832 
L 315.864947 -253.352383 
L 315.826818 -251.982934 
L 315.801588 -250.613485 
L 315.799717 -249.244035 
L 315.831098 -247.874586 
L 315.904133 -246.505137 
L 316.024782 -245.135688 
L 316.19564 -243.766239 
L 316.415136 -242.39679 
L 316.677003 -241.02734 
L 316.970197 -239.657891 
L 317.279438 -238.288442 
L 317.586428 -236.918993 
L 317.871688 -235.549544 
L 318.116771 -234.180095 
L 318.306481 -232.810645 
L 318.430689 -231.441196 
L 318.485354 -230.071747 
L 318.472577 -228.702298 
L 318.399665 -227.332849 
L 318.277484 -225.9634 
L 318.11848 -224.59395 
L 317.934818 -223.224501 
L 317.73704 -221.855052 
L 317.533442 -220.485603 
L 317.330205 -219.116154 
L 317.132109 -217.746705 
L 316.943556 -216.377255 
L 316.769596 -215.007806 
L 316.616692 -213.638357 
L 316.493071 -212.268908 
L 316.408614 -210.899459 
L 316.374335 -209.53001 
L 316.401578 -208.16056 
L 316.501069 -206.791111 
L 316.681997 -205.421662 
L 316.951248 -204.052213 
L 317.312939 -202.682764 
L 317.76835 -201.313315 
L 318.316317 -199.943865 
L 318.954124 -198.574416 
L 319.678804 -197.204967 
L 320.488686 -195.835518 
L 321.38492 -194.466069 
L 322.372613 -193.09662 
L 323.461229 -191.727171 
L 324.663969 -190.357721 
L 325.996065 -188.988272 
L 327.472125 -187.618823 
L 329.102985 -186.249374 
L 330.892628 -184.879925 
L 332.835822 -183.510476 
L 334.916918 -182.141026 
L 337.10997 -180.771577 
L 339.379995 -179.402128 
L 341.684865 -178.032679 
L 343.977243 -176.66323 
L 346.20606 -175.293781 
L 348.317319 -173.924331 
L 350.254393 -172.554882 
L 351.958244 -171.185433 
L 353.368181 -169.815984 
L 354.423626 -168.446535 
L 355.067139 -167.077086 
L 355.248562 -165.707636 
L 354.929859 -164.338187 
L 354.089947 -162.968738 
L 352.72883 -161.599289 
L 350.870326 -160.22984 
L 348.562902 -158.860391 
L 345.878303 -157.490941 
L 342.90792 -156.121492 
L 339.757111 -154.752043 
L 336.537932 -153.382594 
L 333.361023 -152.013145 
L 330.327559 -150.643696 
L 327.522221 -149.274246 
L 325.008084 -147.904797 
L 322.823972 -146.535348 
L 320.984518 -145.165899 
L 319.48265 -143.79645 
L 318.293944 -142.427001 
L 317.381986 -141.057551 
L 316.703901 -139.688102 
L 316.215301 -138.318653 
z
" id="mfa0a0380d6" style="stroke:#515151;stroke-opacity:0.5;stroke-width:1.5;"/>
    </defs>
    <g clip-path="url(#p4a888a2eee)">
     <use style="fill:#db8132;fill-opacity:0.5;stroke:#515151;stroke-opacity:0.5;stroke-width:1.5;" x="0" xlink:href="#mfa0a0380d6" y="324"/>
    </g>
   </g>
   <g id="PolyCollection_4">
    <defs>
     <path d="M 416.893422 -118.593344 
L 413.575953 -118.593344 
L 412.93509 -119.769022 
L 412.106207 -120.944701 
L 411.057519 -122.12038 
L 409.759944 -123.296058 
L 408.190173 -124.471737 
L 406.33401 -125.647416 
L 404.189675 -126.823094 
L 401.770674 -127.998773 
L 399.107827 -129.174452 
L 396.250065 -130.35013 
L 393.263747 -131.525809 
L 390.230364 -132.701488 
L 387.242719 -133.877166 
L 384.399853 -135.052845 
L 381.801161 -136.228524 
L 379.540243 -137.404202 
L 377.699075 -138.579881 
L 376.343029 -139.75556 
L 375.517148 -140.931238 
L 375.243938 -142.106917 
L 375.522736 -143.282596 
L 376.330594 -144.458274 
L 377.62446 -145.633953 
L 379.344387 -146.809632 
L 381.41748 -147.98531 
L 383.76226 -149.160989 
L 386.293176 -150.336668 
L 388.925015 -151.512347 
L 391.576955 -152.688025 
L 394.176067 -153.863704 
L 396.660067 -155.039383 
L 398.979175 -156.215061 
L 401.09699 -157.39074 
L 402.990367 -158.566419 
L 404.64839 -159.742097 
L 406.07058 -160.917776 
L 407.264611 -162.093455 
L 408.243808 -163.269133 
L 409.024725 -164.444812 
L 409.625081 -165.620491 
L 410.062247 -166.796169 
L 410.352405 -167.971848 
L 410.510383 -169.147527 
L 410.550071 -170.323205 
L 410.485256 -171.498884 
L 410.330623 -172.674563 
L 410.102702 -173.850241 
L 409.820509 -175.02592 
L 409.505716 -176.201599 
L 409.182257 -177.377277 
L 408.875367 -178.552956 
L 408.610159 -179.728635 
L 408.409913 -180.904313 
L 408.294303 -182.079992 
L 408.277815 -183.255671 
L 408.368573 -184.431349 
L 408.567726 -185.607028 
L 408.8695 -186.782707 
L 409.261876 -187.958385 
L 409.727815 -189.134064 
L 410.246866 -190.309743 
L 410.796939 -191.485421 
L 411.356056 -192.6611 
L 411.903886 -193.836779 
L 412.422921 -195.012457 
L 412.899242 -196.188136 
L 413.322839 -197.363815 
L 413.687547 -198.539493 
L 413.990677 -199.715172 
L 414.232454 -200.890851 
L 414.415373 -202.066529 
L 414.54357 -203.242208 
L 414.622279 -204.417887 
L 414.657425 -205.593565 
L 414.655349 -206.769244 
L 414.622654 -207.944923 
L 414.56613 -209.120601 
L 414.492707 -210.29628 
L 414.409388 -211.471959 
L 414.323129 -212.647638 
L 414.240647 -213.823316 
L 414.168153 -214.998995 
L 414.111049 -216.174674 
L 414.073612 -217.350352 
L 414.058727 -218.526031 
L 414.067711 -219.70171 
L 414.100258 -220.877388 
L 414.154531 -222.053067 
L 414.227383 -223.228746 
L 414.314698 -224.404424 
L 414.411794 -225.580103 
L 414.513849 -226.755782 
L 414.616298 -227.93146 
L 414.715153 -229.107139 
L 414.807228 -230.282818 
L 414.890257 -231.458496 
L 414.962897 -232.634175 
L 415.024651 -233.809854 
L 415.07573 -234.985532 
L 415.393645 -234.985532 
L 415.393645 -234.985532 
L 415.444724 -233.809854 
L 415.506478 -232.634175 
L 415.579118 -231.458496 
L 415.662147 -230.282818 
L 415.754222 -229.107139 
L 415.853077 -227.93146 
L 415.955526 -226.755782 
L 416.057581 -225.580103 
L 416.154677 -224.404424 
L 416.241992 -223.228746 
L 416.314844 -222.053067 
L 416.369117 -220.877388 
L 416.401664 -219.70171 
L 416.410648 -218.526031 
L 416.395763 -217.350352 
L 416.358326 -216.174674 
L 416.301222 -214.998995 
L 416.228728 -213.823316 
L 416.146246 -212.647638 
L 416.059987 -211.471959 
L 415.976668 -210.29628 
L 415.903245 -209.120601 
L 415.846721 -207.944923 
L 415.814026 -206.769244 
L 415.81195 -205.593565 
L 415.847096 -204.417887 
L 415.925805 -203.242208 
L 416.054002 -202.066529 
L 416.236921 -200.890851 
L 416.478698 -199.715172 
L 416.781828 -198.539493 
L 417.146536 -197.363815 
L 417.570133 -196.188136 
L 418.046454 -195.012457 
L 418.565489 -193.836779 
L 419.113319 -192.6611 
L 419.672436 -191.485421 
L 420.222509 -190.309743 
L 420.74156 -189.134064 
L 421.207499 -187.958385 
L 421.599875 -186.782707 
L 421.901649 -185.607028 
L 422.100802 -184.431349 
L 422.19156 -183.255671 
L 422.175072 -182.079992 
L 422.059462 -180.904313 
L 421.859216 -179.728635 
L 421.594008 -178.552956 
L 421.287118 -177.377277 
L 420.963659 -176.201599 
L 420.648866 -175.02592 
L 420.366673 -173.850241 
L 420.138752 -172.674563 
L 419.984119 -171.498884 
L 419.919304 -170.323205 
L 419.958992 -169.147527 
L 420.11697 -167.971848 
L 420.407128 -166.796169 
L 420.844294 -165.620491 
L 421.44465 -164.444812 
L 422.225567 -163.269133 
L 423.204764 -162.093455 
L 424.398795 -160.917776 
L 425.820985 -159.742097 
L 427.479008 -158.566419 
L 429.372385 -157.39074 
L 431.4902 -156.215061 
L 433.809308 -155.039383 
L 436.293308 -153.863704 
L 438.89242 -152.688025 
L 441.54436 -151.512347 
L 444.176199 -150.336668 
L 446.707115 -149.160989 
L 449.051895 -147.98531 
L 451.124988 -146.809632 
L 452.844915 -145.633953 
L 454.138781 -144.458274 
L 454.946639 -143.282596 
L 455.225437 -142.106917 
L 454.952227 -140.931238 
L 454.126346 -139.75556 
L 452.7703 -138.579881 
L 450.929132 -137.404202 
L 448.668214 -136.228524 
L 446.069522 -135.052845 
L 443.226656 -133.877166 
L 440.239011 -132.701488 
L 437.205628 -131.525809 
L 434.21931 -130.35013 
L 431.361548 -129.174452 
L 428.698701 -127.998773 
L 426.2797 -126.823094 
L 424.135365 -125.647416 
L 422.279202 -124.471737 
L 420.709431 -123.296058 
L 419.411856 -122.12038 
L 418.363168 -120.944701 
L 417.534285 -119.769022 
L 416.893422 -118.593344 
z
" id="meafbc3ed3a" style="stroke:#515151;stroke-opacity:0.5;stroke-width:1.5;"/>
    </defs>
    <g clip-path="url(#p4a888a2eee)">
     <use style="fill:#db8132;fill-opacity:0.5;stroke:#515151;stroke-opacity:0.5;stroke-width:1.5;" x="0" xlink:href="#meafbc3ed3a" y="324"/>
    </g>
   </g>
   <g id="PolyCollection_5">
    <defs>
     <path d="M 517.349466 -108.518397 
L 513.073659 -108.518397 
L 512.410375 -109.962831 
L 511.591351 -111.407265 
L 510.596296 -112.851699 
L 509.407049 -114.296133 
L 508.009143 -115.740567 
L 506.393487 -117.185002 
L 504.558028 -118.629436 
L 502.509276 -120.07387 
L 500.263513 -121.518304 
L 497.84755 -122.962738 
L 495.298886 -124.407172 
L 492.665193 -125.851606 
L 490.003054 -127.296041 
L 487.376004 -128.740475 
L 484.851934 -130.184909 
L 482.50003 -131.629343 
L 480.387428 -133.073777 
L 478.575839 -134.518211 
L 477.118384 -135.962646 
L 476.056875 -137.40708 
L 475.419753 -138.851514 
L 475.220812 -140.295948 
L 475.458799 -141.740382 
L 476.117885 -143.184816 
L 477.168941 -144.62925 
L 478.571494 -146.073685 
L 480.276174 -147.518119 
L 482.227466 -148.962553 
L 484.366556 -150.406987 
L 486.634083 -151.851421 
L 488.972621 -153.295855 
L 491.328794 -154.74029 
L 493.654917 -156.184724 
L 495.910149 -157.629158 
L 498.061152 -159.073592 
L 500.082305 -160.518026 
L 501.955513 -161.96246 
L 503.669706 -163.406894 
L 505.220102 -164.851329 
L 506.607301 -166.295763 
L 507.8363 -167.740197 
L 508.915482 -169.184631 
L 509.855636 -170.629065 
L 510.669048 -172.073499 
L 511.368698 -173.517933 
L 511.967582 -174.962368 
L 512.478164 -176.406802 
L 512.911973 -177.851236 
L 513.279322 -179.29567 
L 513.589151 -180.740104 
L 513.848962 -182.184538 
L 514.064838 -183.628973 
L 514.241522 -185.073407 
L 514.382522 -186.517841 
L 514.490252 -187.962275 
L 514.566176 -189.406709 
L 514.610956 -190.851143 
L 514.624604 -192.295577 
L 514.606642 -193.740012 
L 514.556268 -195.184446 
L 514.472542 -196.62888 
L 514.354588 -198.073314 
L 514.20182 -199.517748 
L 514.01418 -200.962182 
L 513.792384 -202.406617 
L 513.538157 -203.851051 
L 513.254441 -205.295485 
L 512.945546 -206.739919 
L 512.617227 -208.184353 
L 512.276674 -209.628787 
L 511.932377 -211.073221 
L 511.59389 -212.517656 
L 511.271474 -213.96209 
L 510.975648 -215.406524 
L 510.716669 -216.850958 
L 510.503976 -218.295392 
L 510.345653 -219.739826 
L 510.24793 -221.18426 
L 510.214794 -222.628695 
L 510.247729 -224.073129 
L 510.345608 -225.517563 
L 510.504762 -226.961997 
L 510.719204 -228.406431 
L 510.981007 -229.850865 
L 511.280791 -231.2953 
L 511.608277 -232.739734 
L 511.952873 -234.184168 
L 512.30424 -235.628602 
L 512.652788 -237.073036 
L 512.990082 -238.51747 
L 513.309139 -239.961904 
L 513.604587 -241.406339 
L 513.872713 -242.850773 
L 514.111395 -244.295207 
L 514.319956 -245.739641 
L 514.498939 -247.184075 
L 514.649864 -248.628509 
L 514.774959 -250.072944 
L 514.876907 -251.517378 
L 515.546218 -251.517378 
L 515.546218 -251.517378 
L 515.648166 -250.072944 
L 515.773261 -248.628509 
L 515.924186 -247.184075 
L 516.103169 -245.739641 
L 516.31173 -244.295207 
L 516.550412 -242.850773 
L 516.818538 -241.406339 
L 517.113986 -239.961904 
L 517.433043 -238.51747 
L 517.770337 -237.073036 
L 518.118885 -235.628602 
L 518.470252 -234.184168 
L 518.814848 -232.739734 
L 519.142334 -231.2953 
L 519.442118 -229.850865 
L 519.703921 -228.406431 
L 519.918363 -226.961997 
L 520.077517 -225.517563 
L 520.175396 -224.073129 
L 520.208331 -222.628695 
L 520.175195 -221.18426 
L 520.077472 -219.739826 
L 519.919149 -218.295392 
L 519.706456 -216.850958 
L 519.447477 -215.406524 
L 519.151651 -213.96209 
L 518.829235 -212.517656 
L 518.490748 -211.073221 
L 518.146451 -209.628787 
L 517.805898 -208.184353 
L 517.477579 -206.739919 
L 517.168684 -205.295485 
L 516.884968 -203.851051 
L 516.630741 -202.406617 
L 516.408945 -200.962182 
L 516.221305 -199.517748 
L 516.068537 -198.073314 
L 515.950583 -196.62888 
L 515.866857 -195.184446 
L 515.816483 -193.740012 
L 515.798521 -192.295577 
L 515.812169 -190.851143 
L 515.856949 -189.406709 
L 515.932873 -187.962275 
L 516.040603 -186.517841 
L 516.181603 -185.073407 
L 516.358287 -183.628973 
L 516.574163 -182.184538 
L 516.833974 -180.740104 
L 517.143803 -179.29567 
L 517.511152 -177.851236 
L 517.944961 -176.406802 
L 518.455543 -174.962368 
L 519.054427 -173.517933 
L 519.754077 -172.073499 
L 520.567489 -170.629065 
L 521.507643 -169.184631 
L 522.586825 -167.740197 
L 523.815824 -166.295763 
L 525.203023 -164.851329 
L 526.753419 -163.406894 
L 528.467612 -161.96246 
L 530.34082 -160.518026 
L 532.361973 -159.073592 
L 534.512976 -157.629158 
L 536.768208 -156.184724 
L 539.094331 -154.74029 
L 541.450504 -153.295855 
L 543.789042 -151.851421 
L 546.056569 -150.406987 
L 548.195659 -148.962553 
L 550.146951 -147.518119 
L 551.851631 -146.073685 
L 553.254184 -144.62925 
L 554.30524 -143.184816 
L 554.964326 -141.740382 
L 555.202313 -140.295948 
L 555.003372 -138.851514 
L 554.36625 -137.40708 
L 553.304741 -135.962646 
L 551.847286 -134.518211 
L 550.035697 -133.073777 
L 547.923095 -131.629343 
L 545.571191 -130.184909 
L 543.047121 -128.740475 
L 540.420071 -127.296041 
L 537.757932 -125.851606 
L 535.124239 -124.407172 
L 532.575575 -122.962738 
L 530.159612 -121.518304 
L 527.913849 -120.07387 
L 525.865097 -118.629436 
L 524.029638 -117.185002 
L 522.413982 -115.740567 
L 521.016076 -114.296133 
L 519.826829 -112.851699 
L 518.831774 -111.407265 
L 518.01275 -109.962831 
L 517.349466 -108.518397 
z
" id="m34f4369ca4" style="stroke:#515151;stroke-opacity:0.5;stroke-width:1.5;"/>
    </defs>
    <g clip-path="url(#p4a888a2eee)">
     <use style="fill:#db8132;fill-opacity:0.5;stroke:#515151;stroke-opacity:0.5;stroke-width:1.5;" x="0" xlink:href="#m34f4369ca4" y="324"/>
    </g>
   </g>
   <g id="matplotlib.axis_1">
    <g id="xtick_1">
     <g id="line2d_1">
      <path clip-path="url(#p4a888a2eee)" d="M 115.304063 244.795289 
L 115.304063 39.3555 
" style="fill:none;stroke:#b0b0b0;stroke-linecap:square;stroke-opacity:0.3;stroke-width:0.8;"/>
     </g>
     <g id="line2d_2">
      <defs>
       <path d="M 0 0 
L 0 3.5 
" id="m5dd6169fda" style="stroke:#000000;stroke-width:0.8;"/>
      </defs>
      <g>
       <use style="stroke:#000000;stroke-width:0.8;" x="115.304063" xlink:href="#m5dd6169fda" y="244.795289"/>
      </g>
     </g>
     <g id="text_1">
      <!-- alternating -->
      <g transform="translate(89.974614 295.893341)rotate(-45)scale(0.1 -0.1)">
       <defs>
        <path d="M 34.28125 27.484375 
Q 23.390625 27.484375 19.1875 25 
Q 14.984375 22.515625 14.984375 16.5 
Q 14.984375 11.71875 18.140625 8.90625 
Q 21.296875 6.109375 26.703125 6.109375 
Q 34.1875 6.109375 38.703125 11.40625 
Q 43.21875 16.703125 43.21875 25.484375 
L 43.21875 27.484375 
z
M 52.203125 31.203125 
L 52.203125 0 
L 43.21875 0 
L 43.21875 8.296875 
Q 40.140625 3.328125 35.546875 0.953125 
Q 30.953125 -1.421875 24.3125 -1.421875 
Q 15.921875 -1.421875 10.953125 3.296875 
Q 6 8.015625 6 15.921875 
Q 6 25.140625 12.171875 29.828125 
Q 18.359375 34.515625 30.609375 34.515625 
L 43.21875 34.515625 
L 43.21875 35.40625 
Q 43.21875 41.609375 39.140625 45 
Q 35.0625 48.390625 27.6875 48.390625 
Q 23 48.390625 18.546875 47.265625 
Q 14.109375 46.140625 10.015625 43.890625 
L 10.015625 52.203125 
Q 14.9375 54.109375 19.578125 55.046875 
Q 24.21875 56 28.609375 56 
Q 40.484375 56 46.34375 49.84375 
Q 52.203125 43.703125 52.203125 31.203125 
z
" id="DejaVuSans-97"/>
        <path d="M 9.421875 75.984375 
L 18.40625 75.984375 
L 18.40625 0 
L 9.421875 0 
z
" id="DejaVuSans-108"/>
        <path d="M 18.3125 70.21875 
L 18.3125 54.6875 
L 36.8125 54.6875 
L 36.8125 47.703125 
L 18.3125 47.703125 
L 18.3125 18.015625 
Q 18.3125 11.328125 20.140625 9.421875 
Q 21.96875 7.515625 27.59375 7.515625 
L 36.8125 7.515625 
L 36.8125 0 
L 27.59375 0 
Q 17.1875 0 13.234375 3.875 
Q 9.28125 7.765625 9.28125 18.015625 
L 9.28125 47.703125 
L 2.6875 47.703125 
L 2.6875 54.6875 
L 9.28125 54.6875 
L 9.28125 70.21875 
z
" id="DejaVuSans-116"/>
        <path d="M 56.203125 29.59375 
L 56.203125 25.203125 
L 14.890625 25.203125 
Q 15.484375 15.921875 20.484375 11.0625 
Q 25.484375 6.203125 34.421875 6.203125 
Q 39.59375 6.203125 44.453125 7.46875 
Q 49.3125 8.734375 54.109375 11.28125 
L 54.109375 2.78125 
Q 49.265625 0.734375 44.1875 -0.34375 
Q 39.109375 -1.421875 33.890625 -1.421875 
Q 20.796875 -1.421875 13.15625 6.1875 
Q 5.515625 13.8125 5.515625 26.8125 
Q 5.515625 40.234375 12.765625 48.109375 
Q 20.015625 56 32.328125 56 
Q 43.359375 56 49.78125 48.890625 
Q 56.203125 41.796875 56.203125 29.59375 
z
M 47.21875 32.234375 
Q 47.125 39.59375 43.09375 43.984375 
Q 39.0625 48.390625 32.421875 48.390625 
Q 24.90625 48.390625 20.390625 44.140625 
Q 15.875 39.890625 15.1875 32.171875 
z
" id="DejaVuSans-101"/>
        <path d="M 41.109375 46.296875 
Q 39.59375 47.171875 37.8125 47.578125 
Q 36.03125 48 33.890625 48 
Q 26.265625 48 22.1875 43.046875 
Q 18.109375 38.09375 18.109375 28.8125 
L 18.109375 0 
L 9.078125 0 
L 9.078125 54.6875 
L 18.109375 54.6875 
L 18.109375 46.1875 
Q 20.953125 51.171875 25.484375 53.578125 
Q 30.03125 56 36.53125 56 
Q 37.453125 56 38.578125 55.875 
Q 39.703125 55.765625 41.0625 55.515625 
z
" id="DejaVuSans-114"/>
        <path d="M 54.890625 33.015625 
L 54.890625 0 
L 45.90625 0 
L 45.90625 32.71875 
Q 45.90625 40.484375 42.875 44.328125 
Q 39.84375 48.1875 33.796875 48.1875 
Q 26.515625 48.1875 22.3125 43.546875 
Q 18.109375 38.921875 18.109375 30.90625 
L 18.109375 0 
L 9.078125 0 
L 9.078125 54.6875 
L 18.109375 54.6875 
L 18.109375 46.1875 
Q 21.34375 51.125 25.703125 53.5625 
Q 30.078125 56 35.796875 56 
Q 45.21875 56 50.046875 50.171875 
Q 54.890625 44.34375 54.890625 33.015625 
z
" id="DejaVuSans-110"/>
        <path d="M 9.421875 54.6875 
L 18.40625 54.6875 
L 18.40625 0 
L 9.421875 0 
z
M 9.421875 75.984375 
L 18.40625 75.984375 
L 18.40625 64.59375 
L 9.421875 64.59375 
z
" id="DejaVuSans-105"/>
        <path d="M 45.40625 27.984375 
Q 45.40625 37.75 41.375 43.109375 
Q 37.359375 48.484375 30.078125 48.484375 
Q 22.859375 48.484375 18.828125 43.109375 
Q 14.796875 37.75 14.796875 27.984375 
Q 14.796875 18.265625 18.828125 12.890625 
Q 22.859375 7.515625 30.078125 7.515625 
Q 37.359375 7.515625 41.375 12.890625 
Q 45.40625 18.265625 45.40625 27.984375 
z
M 54.390625 6.78125 
Q 54.390625 -7.171875 48.1875 -13.984375 
Q 42 -20.796875 29.203125 -20.796875 
Q 24.46875 -20.796875 20.265625 -20.09375 
Q 16.0625 -19.390625 12.109375 -17.921875 
L 12.109375 -9.1875 
Q 16.0625 -11.328125 19.921875 -12.34375 
Q 23.78125 -13.375 27.78125 -13.375 
Q 36.625 -13.375 41.015625 -8.765625 
Q 45.40625 -4.15625 45.40625 5.171875 
L 45.40625 9.625 
Q 42.625 4.78125 38.28125 2.390625 
Q 33.9375 0 27.875 0 
Q 17.828125 0 11.671875 7.65625 
Q 5.515625 15.328125 5.515625 27.984375 
Q 5.515625 40.671875 11.671875 48.328125 
Q 17.828125 56 27.875 56 
Q 33.9375 56 38.28125 53.609375 
Q 42.625 51.21875 45.40625 46.390625 
L 45.40625 54.6875 
L 54.390625 54.6875 
z
" id="DejaVuSans-103"/>
       </defs>
       <use xlink:href="#DejaVuSans-97"/>
       <use x="61.279297" xlink:href="#DejaVuSans-108"/>
       <use x="89.0625" xlink:href="#DejaVuSans-116"/>
       <use x="128.271484" xlink:href="#DejaVuSans-101"/>
       <use x="189.794922" xlink:href="#DejaVuSans-114"/>
       <use x="229.158203" xlink:href="#DejaVuSans-110"/>
       <use x="292.537109" xlink:href="#DejaVuSans-97"/>
       <use x="353.816406" xlink:href="#DejaVuSans-116"/>
       <use x="393.025391" xlink:href="#DejaVuSans-105"/>
       <use x="420.808594" xlink:href="#DejaVuSans-110"/>
       <use x="484.1875" xlink:href="#DejaVuSans-103"/>
      </g>
      <!-- 600 MHz -->
      <g transform="translate(101.81821 299.885842)rotate(-45)scale(0.1 -0.1)">
       <defs>
        <path d="M 33.015625 40.375 
Q 26.375 40.375 22.484375 35.828125 
Q 18.609375 31.296875 18.609375 23.390625 
Q 18.609375 15.53125 22.484375 10.953125 
Q 26.375 6.390625 33.015625 6.390625 
Q 39.65625 6.390625 43.53125 10.953125 
Q 47.40625 15.53125 47.40625 23.390625 
Q 47.40625 31.296875 43.53125 35.828125 
Q 39.65625 40.375 33.015625 40.375 
z
M 52.59375 71.296875 
L 52.59375 62.3125 
Q 48.875 64.0625 45.09375 64.984375 
Q 41.3125 65.921875 37.59375 65.921875 
Q 27.828125 65.921875 22.671875 59.328125 
Q 17.53125 52.734375 16.796875 39.40625 
Q 19.671875 43.65625 24.015625 45.921875 
Q 28.375 48.1875 33.59375 48.1875 
Q 44.578125 48.1875 50.953125 41.515625 
Q 57.328125 34.859375 57.328125 23.390625 
Q 57.328125 12.15625 50.6875 5.359375 
Q 44.046875 -1.421875 33.015625 -1.421875 
Q 20.359375 -1.421875 13.671875 8.265625 
Q 6.984375 17.96875 6.984375 36.375 
Q 6.984375 53.65625 15.1875 63.9375 
Q 23.390625 74.21875 37.203125 74.21875 
Q 40.921875 74.21875 44.703125 73.484375 
Q 48.484375 72.75 52.59375 71.296875 
z
" id="DejaVuSans-54"/>
        <path d="M 31.78125 66.40625 
Q 24.171875 66.40625 20.328125 58.90625 
Q 16.5 51.421875 16.5 36.375 
Q 16.5 21.390625 20.328125 13.890625 
Q 24.171875 6.390625 31.78125 6.390625 
Q 39.453125 6.390625 43.28125 13.890625 
Q 47.125 21.390625 47.125 36.375 
Q 47.125 51.421875 43.28125 58.90625 
Q 39.453125 66.40625 31.78125 66.40625 
z
M 31.78125 74.21875 
Q 44.046875 74.21875 50.515625 64.515625 
Q 56.984375 54.828125 56.984375 36.375 
Q 56.984375 17.96875 50.515625 8.265625 
Q 44.046875 -1.421875 31.78125 -1.421875 
Q 19.53125 -1.421875 13.0625 8.265625 
Q 6.59375 17.96875 6.59375 36.375 
Q 6.59375 54.828125 13.0625 64.515625 
Q 19.53125 74.21875 31.78125 74.21875 
z
" id="DejaVuSans-48"/>
        <path id="DejaVuSans-32"/>
        <path d="M 9.8125 72.90625 
L 24.515625 72.90625 
L 43.109375 23.296875 
L 61.8125 72.90625 
L 76.515625 72.90625 
L 76.515625 0 
L 66.890625 0 
L 66.890625 64.015625 
L 48.09375 14.015625 
L 38.1875 14.015625 
L 19.390625 64.015625 
L 19.390625 0 
L 9.8125 0 
z
" id="DejaVuSans-77"/>
        <path d="M 9.8125 72.90625 
L 19.671875 72.90625 
L 19.671875 43.015625 
L 55.515625 43.015625 
L 55.515625 72.90625 
L 65.375 72.90625 
L 65.375 0 
L 55.515625 0 
L 55.515625 34.71875 
L 19.671875 34.71875 
L 19.671875 0 
L 9.8125 0 
z
" id="DejaVuSans-72"/>
        <path d="M 5.515625 54.6875 
L 48.1875 54.6875 
L 48.1875 46.484375 
L 14.40625 7.171875 
L 48.1875 7.171875 
L 48.1875 0 
L 4.296875 0 
L 4.296875 8.203125 
L 38.09375 47.515625 
L 5.515625 47.515625 
z
" id="DejaVuSans-122"/>
       </defs>
       <use xlink:href="#DejaVuSans-54"/>
       <use x="63.623047" xlink:href="#DejaVuSans-48"/>
       <use x="127.246094" xlink:href="#DejaVuSans-48"/>
       <use x="190.869141" xlink:href="#DejaVuSans-32"/>
       <use x="222.65625" xlink:href="#DejaVuSans-77"/>
       <use x="308.935547" xlink:href="#DejaVuSans-72"/>
       <use x="384.130859" xlink:href="#DejaVuSans-122"/>
      </g>
      <!-- 896 MHz -->
      <g transform="translate(109.73626 307.803891)rotate(-45)scale(0.1 -0.1)">
       <defs>
        <path d="M 31.78125 34.625 
Q 24.75 34.625 20.71875 30.859375 
Q 16.703125 27.09375 16.703125 20.515625 
Q 16.703125 13.921875 20.71875 10.15625 
Q 24.75 6.390625 31.78125 6.390625 
Q 38.8125 6.390625 42.859375 10.171875 
Q 46.921875 13.96875 46.921875 20.515625 
Q 46.921875 27.09375 42.890625 30.859375 
Q 38.875 34.625 31.78125 34.625 
z
M 21.921875 38.8125 
Q 15.578125 40.375 12.03125 44.71875 
Q 8.5 49.078125 8.5 55.328125 
Q 8.5 64.0625 14.71875 69.140625 
Q 20.953125 74.21875 31.78125 74.21875 
Q 42.671875 74.21875 48.875 69.140625 
Q 55.078125 64.0625 55.078125 55.328125 
Q 55.078125 49.078125 51.53125 44.71875 
Q 48 40.375 41.703125 38.8125 
Q 48.828125 37.15625 52.796875 32.3125 
Q 56.78125 27.484375 56.78125 20.515625 
Q 56.78125 9.90625 50.3125 4.234375 
Q 43.84375 -1.421875 31.78125 -1.421875 
Q 19.734375 -1.421875 13.25 4.234375 
Q 6.78125 9.90625 6.78125 20.515625 
Q 6.78125 27.484375 10.78125 32.3125 
Q 14.796875 37.15625 21.921875 38.8125 
z
M 18.3125 54.390625 
Q 18.3125 48.734375 21.84375 45.5625 
Q 25.390625 42.390625 31.78125 42.390625 
Q 38.140625 42.390625 41.71875 45.5625 
Q 45.3125 48.734375 45.3125 54.390625 
Q 45.3125 60.0625 41.71875 63.234375 
Q 38.140625 66.40625 31.78125 66.40625 
Q 25.390625 66.40625 21.84375 63.234375 
Q 18.3125 60.0625 18.3125 54.390625 
z
" id="DejaVuSans-56"/>
        <path d="M 10.984375 1.515625 
L 10.984375 10.5 
Q 14.703125 8.734375 18.5 7.8125 
Q 22.3125 6.890625 25.984375 6.890625 
Q 35.75 6.890625 40.890625 13.453125 
Q 46.046875 20.015625 46.78125 33.40625 
Q 43.953125 29.203125 39.59375 26.953125 
Q 35.25 24.703125 29.984375 24.703125 
Q 19.046875 24.703125 12.671875 31.3125 
Q 6.296875 37.9375 6.296875 49.421875 
Q 6.296875 60.640625 12.9375 67.421875 
Q 19.578125 74.21875 30.609375 74.21875 
Q 43.265625 74.21875 49.921875 64.515625 
Q 56.59375 54.828125 56.59375 36.375 
Q 56.59375 19.140625 48.40625 8.859375 
Q 40.234375 -1.421875 26.421875 -1.421875 
Q 22.703125 -1.421875 18.890625 -0.6875 
Q 15.09375 0.046875 10.984375 1.515625 
z
M 30.609375 32.421875 
Q 37.25 32.421875 41.125 36.953125 
Q 45.015625 41.5 45.015625 49.421875 
Q 45.015625 57.28125 41.125 61.84375 
Q 37.25 66.40625 30.609375 66.40625 
Q 23.96875 66.40625 20.09375 61.84375 
Q 16.21875 57.28125 16.21875 49.421875 
Q 16.21875 41.5 20.09375 36.953125 
Q 23.96875 32.421875 30.609375 32.421875 
z
" id="DejaVuSans-57"/>
       </defs>
       <use xlink:href="#DejaVuSans-56"/>
       <use x="63.623047" xlink:href="#DejaVuSans-57"/>
       <use x="127.246094" xlink:href="#DejaVuSans-54"/>
       <use x="190.869141" xlink:href="#DejaVuSans-32"/>
       <use x="222.65625" xlink:href="#DejaVuSans-77"/>
       <use x="308.935547" xlink:href="#DejaVuSans-72"/>
       <use x="384.130859" xlink:href="#DejaVuSans-122"/>
      </g>
     </g>
    </g>
    <g id="xtick_2">
     <g id="line2d_3">
      <path clip-path="url(#p4a888a2eee)" d="M 215.280937 244.795289 
L 215.280937 39.3555 
" style="fill:none;stroke:#b0b0b0;stroke-linecap:square;stroke-opacity:0.3;stroke-width:0.8;"/>
     </g>
     <g id="line2d_4">
      <g>
       <use style="stroke:#000000;stroke-width:0.8;" x="215.280937" xlink:href="#m5dd6169fda" y="244.795289"/>
      </g>
     </g>
     <g id="text_2">
      <!-- alternating -->
      <g transform="translate(189.951489 295.893341)rotate(-45)scale(0.1 -0.1)">
       <use xlink:href="#DejaVuSans-97"/>
       <use x="61.279297" xlink:href="#DejaVuSans-108"/>
       <use x="89.0625" xlink:href="#DejaVuSans-116"/>
       <use x="128.271484" xlink:href="#DejaVuSans-101"/>
       <use x="189.794922" xlink:href="#DejaVuSans-114"/>
       <use x="229.158203" xlink:href="#DejaVuSans-110"/>
       <use x="292.537109" xlink:href="#DejaVuSans-97"/>
       <use x="353.816406" xlink:href="#DejaVuSans-116"/>
       <use x="393.025391" xlink:href="#DejaVuSans-105"/>
       <use x="420.808594" xlink:href="#DejaVuSans-110"/>
       <use x="484.1875" xlink:href="#DejaVuSans-103"/>
      </g>
      <!-- 600 MHz -->
      <g transform="translate(201.795085 299.885842)rotate(-45)scale(0.1 -0.1)">
       <use xlink:href="#DejaVuSans-54"/>
       <use x="63.623047" xlink:href="#DejaVuSans-48"/>
       <use x="127.246094" xlink:href="#DejaVuSans-48"/>
       <use x="190.869141" xlink:href="#DejaVuSans-32"/>
       <use x="222.65625" xlink:href="#DejaVuSans-77"/>
       <use x="308.935547" xlink:href="#DejaVuSans-72"/>
       <use x="384.130859" xlink:href="#DejaVuSans-122"/>
      </g>
      <!-- 1104 MHz -->
      <g transform="translate(207.463651 310.053375)rotate(-45)scale(0.1 -0.1)">
       <defs>
        <path d="M 12.40625 8.296875 
L 28.515625 8.296875 
L 28.515625 63.921875 
L 10.984375 60.40625 
L 10.984375 69.390625 
L 28.421875 72.90625 
L 38.28125 72.90625 
L 38.28125 8.296875 
L 54.390625 8.296875 
L 54.390625 0 
L 12.40625 0 
z
" id="DejaVuSans-49"/>
        <path d="M 37.796875 64.3125 
L 12.890625 25.390625 
L 37.796875 25.390625 
z
M 35.203125 72.90625 
L 47.609375 72.90625 
L 47.609375 25.390625 
L 58.015625 25.390625 
L 58.015625 17.1875 
L 47.609375 17.1875 
L 47.609375 0 
L 37.796875 0 
L 37.796875 17.1875 
L 4.890625 17.1875 
L 4.890625 26.703125 
z
" id="DejaVuSans-52"/>
       </defs>
       <use xlink:href="#DejaVuSans-49"/>
       <use x="63.623047" xlink:href="#DejaVuSans-49"/>
       <use x="127.246094" xlink:href="#DejaVuSans-48"/>
       <use x="190.869141" xlink:href="#DejaVuSans-52"/>
       <use x="254.492188" xlink:href="#DejaVuSans-32"/>
       <use x="286.279297" xlink:href="#DejaVuSans-77"/>
       <use x="372.558594" xlink:href="#DejaVuSans-72"/>
       <use x="447.753906" xlink:href="#DejaVuSans-122"/>
      </g>
     </g>
    </g>
    <g id="xtick_3">
     <g id="line2d_5">
      <path clip-path="url(#p4a888a2eee)" d="M 315.257812 244.795289 
L 315.257812 39.3555 
" style="fill:none;stroke:#b0b0b0;stroke-linecap:square;stroke-opacity:0.3;stroke-width:0.8;"/>
     </g>
     <g id="line2d_6">
      <g>
       <use style="stroke:#000000;stroke-width:0.8;" x="315.257812" xlink:href="#m5dd6169fda" y="244.795289"/>
      </g>
     </g>
     <g id="text_3">
      <!-- alternating -->
      <g transform="translate(289.928364 295.893341)rotate(-45)scale(0.1 -0.1)">
       <use xlink:href="#DejaVuSans-97"/>
       <use x="61.279297" xlink:href="#DejaVuSans-108"/>
       <use x="89.0625" xlink:href="#DejaVuSans-116"/>
       <use x="128.271484" xlink:href="#DejaVuSans-101"/>
       <use x="189.794922" xlink:href="#DejaVuSans-114"/>
       <use x="229.158203" xlink:href="#DejaVuSans-110"/>
       <use x="292.537109" xlink:href="#DejaVuSans-97"/>
       <use x="353.816406" xlink:href="#DejaVuSans-116"/>
       <use x="393.025391" xlink:href="#DejaVuSans-105"/>
       <use x="420.808594" xlink:href="#DejaVuSans-110"/>
       <use x="484.1875" xlink:href="#DejaVuSans-103"/>
      </g>
      <!-- 600 MHz -->
      <g transform="translate(301.77196 299.885842)rotate(-45)scale(0.1 -0.1)">
       <use xlink:href="#DejaVuSans-54"/>
       <use x="63.623047" xlink:href="#DejaVuSans-48"/>
       <use x="127.246094" xlink:href="#DejaVuSans-48"/>
       <use x="190.869141" xlink:href="#DejaVuSans-32"/>
       <use x="222.65625" xlink:href="#DejaVuSans-77"/>
       <use x="308.935547" xlink:href="#DejaVuSans-72"/>
       <use x="384.130859" xlink:href="#DejaVuSans-122"/>
      </g>
      <!-- 1200 MHz -->
      <g transform="translate(307.440526 310.053375)rotate(-45)scale(0.1 -0.1)">
       <defs>
        <path d="M 19.1875 8.296875 
L 53.609375 8.296875 
L 53.609375 0 
L 7.328125 0 
L 7.328125 8.296875 
Q 12.9375 14.109375 22.625 23.890625 
Q 32.328125 33.6875 34.8125 36.53125 
Q 39.546875 41.84375 41.421875 45.53125 
Q 43.3125 49.21875 43.3125 52.78125 
Q 43.3125 58.59375 39.234375 62.25 
Q 35.15625 65.921875 28.609375 65.921875 
Q 23.96875 65.921875 18.8125 64.3125 
Q 13.671875 62.703125 7.8125 59.421875 
L 7.8125 69.390625 
Q 13.765625 71.78125 18.9375 73 
Q 24.125 74.21875 28.421875 74.21875 
Q 39.75 74.21875 46.484375 68.546875 
Q 53.21875 62.890625 53.21875 53.421875 
Q 53.21875 48.921875 51.53125 44.890625 
Q 49.859375 40.875 45.40625 35.40625 
Q 44.1875 33.984375 37.640625 27.21875 
Q 31.109375 20.453125 19.1875 8.296875 
z
" id="DejaVuSans-50"/>
       </defs>
       <use xlink:href="#DejaVuSans-49"/>
       <use x="63.623047" xlink:href="#DejaVuSans-50"/>
       <use x="127.246094" xlink:href="#DejaVuSans-48"/>
       <use x="190.869141" xlink:href="#DejaVuSans-48"/>
       <use x="254.492188" xlink:href="#DejaVuSans-32"/>
       <use x="286.279297" xlink:href="#DejaVuSans-77"/>
       <use x="372.558594" xlink:href="#DejaVuSans-72"/>
       <use x="447.753906" xlink:href="#DejaVuSans-122"/>
      </g>
     </g>
    </g>
    <g id="xtick_4">
     <g id="line2d_7">
      <path clip-path="url(#p4a888a2eee)" d="M 415.234687 244.795289 
L 415.234687 39.3555 
" style="fill:none;stroke:#b0b0b0;stroke-linecap:square;stroke-opacity:0.3;stroke-width:0.8;"/>
     </g>
     <g id="line2d_8">
      <g>
       <use style="stroke:#000000;stroke-width:0.8;" x="415.234687" xlink:href="#m5dd6169fda" y="244.795289"/>
      </g>
     </g>
     <g id="text_4">
      <!-- alternating -->
      <g transform="translate(389.905239 295.893341)rotate(-45)scale(0.1 -0.1)">
       <use xlink:href="#DejaVuSans-97"/>
       <use x="61.279297" xlink:href="#DejaVuSans-108"/>
       <use x="89.0625" xlink:href="#DejaVuSans-116"/>
       <use x="128.271484" xlink:href="#DejaVuSans-101"/>
       <use x="189.794922" xlink:href="#DejaVuSans-114"/>
       <use x="229.158203" xlink:href="#DejaVuSans-110"/>
       <use x="292.537109" xlink:href="#DejaVuSans-97"/>
       <use x="353.816406" xlink:href="#DejaVuSans-116"/>
       <use x="393.025391" xlink:href="#DejaVuSans-105"/>
       <use x="420.808594" xlink:href="#DejaVuSans-110"/>
       <use x="484.1875" xlink:href="#DejaVuSans-103"/>
      </g>
      <!-- 1200 MHz -->
      <g transform="translate(399.499352 302.135326)rotate(-45)scale(0.1 -0.1)">
       <use xlink:href="#DejaVuSans-49"/>
       <use x="63.623047" xlink:href="#DejaVuSans-50"/>
       <use x="127.246094" xlink:href="#DejaVuSans-48"/>
       <use x="190.869141" xlink:href="#DejaVuSans-48"/>
       <use x="254.492188" xlink:href="#DejaVuSans-32"/>
       <use x="286.279297" xlink:href="#DejaVuSans-77"/>
       <use x="372.558594" xlink:href="#DejaVuSans-72"/>
       <use x="447.753906" xlink:href="#DejaVuSans-122"/>
      </g>
      <!-- 896 MHz -->
      <g transform="translate(409.666885 307.803891)rotate(-45)scale(0.1 -0.1)">
       <use xlink:href="#DejaVuSans-56"/>
       <use x="63.623047" xlink:href="#DejaVuSans-57"/>
       <use x="127.246094" xlink:href="#DejaVuSans-54"/>
       <use x="190.869141" xlink:href="#DejaVuSans-32"/>
       <use x="222.65625" xlink:href="#DejaVuSans-77"/>
       <use x="308.935547" xlink:href="#DejaVuSans-72"/>
       <use x="384.130859" xlink:href="#DejaVuSans-122"/>
      </g>
     </g>
    </g>
    <g id="xtick_5">
     <g id="line2d_9">
      <path clip-path="url(#p4a888a2eee)" d="M 515.211563 244.795289 
L 515.211563 39.3555 
" style="fill:none;stroke:#b0b0b0;stroke-linecap:square;stroke-opacity:0.3;stroke-width:0.8;"/>
     </g>
     <g id="line2d_10">
      <g>
       <use style="stroke:#000000;stroke-width:0.8;" x="515.211563" xlink:href="#m5dd6169fda" y="244.795289"/>
      </g>
     </g>
     <g id="text_5">
      <!-- alternating -->
      <g transform="translate(489.882114 295.893341)rotate(-45)scale(0.1 -0.1)">
       <use xlink:href="#DejaVuSans-97"/>
       <use x="61.279297" xlink:href="#DejaVuSans-108"/>
       <use x="89.0625" xlink:href="#DejaVuSans-116"/>
       <use x="128.271484" xlink:href="#DejaVuSans-101"/>
       <use x="189.794922" xlink:href="#DejaVuSans-114"/>
       <use x="229.158203" xlink:href="#DejaVuSans-110"/>
       <use x="292.537109" xlink:href="#DejaVuSans-97"/>
       <use x="353.816406" xlink:href="#DejaVuSans-116"/>
       <use x="393.025391" xlink:href="#DejaVuSans-105"/>
       <use x="420.808594" xlink:href="#DejaVuSans-110"/>
       <use x="484.1875" xlink:href="#DejaVuSans-103"/>
      </g>
      <!-- 1200 MHz -->
      <g transform="translate(499.476227 302.135326)rotate(-45)scale(0.1 -0.1)">
       <use xlink:href="#DejaVuSans-49"/>
       <use x="63.623047" xlink:href="#DejaVuSans-50"/>
       <use x="127.246094" xlink:href="#DejaVuSans-48"/>
       <use x="190.869141" xlink:href="#DejaVuSans-48"/>
       <use x="254.492188" xlink:href="#DejaVuSans-32"/>
       <use x="286.279297" xlink:href="#DejaVuSans-77"/>
       <use x="372.558594" xlink:href="#DejaVuSans-72"/>
       <use x="447.753906" xlink:href="#DejaVuSans-122"/>
      </g>
      <!-- 1104 MHz -->
      <g transform="translate(507.394276 310.053375)rotate(-45)scale(0.1 -0.1)">
       <use xlink:href="#DejaVuSans-49"/>
       <use x="63.623047" xlink:href="#DejaVuSans-49"/>
       <use x="127.246094" xlink:href="#DejaVuSans-48"/>
       <use x="190.869141" xlink:href="#DejaVuSans-52"/>
       <use x="254.492188" xlink:href="#DejaVuSans-32"/>
       <use x="286.279297" xlink:href="#DejaVuSans-77"/>
       <use x="372.558594" xlink:href="#DejaVuSans-72"/>
       <use x="447.753906" xlink:href="#DejaVuSans-122"/>
      </g>
     </g>
    </g>
   </g>
   <g id="matplotlib.axis_2">
    <g id="ytick_1">
     <g id="line2d_11">
      <path clip-path="url(#p4a888a2eee)" d="M 65.315625 244.795289 
L 565.2 244.795289 
" style="fill:none;stroke:#b0b0b0;stroke-linecap:square;stroke-opacity:0.3;stroke-width:0.8;"/>
     </g>
     <g id="line2d_12">
      <defs>
       <path d="M 0 0 
L -3.5 0 
" id="m4585e3fd8d" style="stroke:#000000;stroke-width:0.8;"/>
      </defs>
      <g>
       <use style="stroke:#000000;stroke-width:0.8;" x="65.315625" xlink:href="#m4585e3fd8d" y="244.795289"/>
      </g>
     </g>
     <g id="text_6">
      <!-- 0 s -->
      <g transform="translate(37.203125 248.594508)scale(0.1 -0.1)">
       <defs>
        <path d="M 8.5 -20.796875 
L 8.5 54.6875 
L 17.484375 54.6875 
L 17.484375 20.703125 
Q 17.484375 13.625 20.84375 10 
Q 24.21875 6.390625 30.8125 6.390625 
Q 38.03125 6.390625 41.671875 10.484375 
Q 45.3125 14.59375 45.3125 22.796875 
L 45.3125 54.6875 
L 54.296875 54.6875 
L 54.296875 12.59375 
Q 54.296875 9.671875 55.140625 8.28125 
Q 56 6.890625 57.8125 6.890625 
Q 58.25 6.890625 59.03125 7.15625 
Q 59.8125 7.421875 61.1875 8.015625 
L 61.1875 0.78125 
Q 59.1875 -0.34375 57.390625 -0.875 
Q 55.609375 -1.421875 53.90625 -1.421875 
Q 50.53125 -1.421875 48.53125 0.484375 
Q 46.53125 2.390625 45.796875 6.296875 
Q 43.359375 2.4375 39.8125 0.5 
Q 36.28125 -1.421875 31.5 -1.421875 
Q 26.515625 -1.421875 23.015625 0.484375 
Q 19.53125 2.390625 17.484375 6.203125 
L 17.484375 -20.796875 
z
" id="DejaVuSans-181"/>
        <path d="M 44.28125 53.078125 
L 44.28125 44.578125 
Q 40.484375 46.53125 36.375 47.5 
Q 32.28125 48.484375 27.875 48.484375 
Q 21.1875 48.484375 17.84375 46.4375 
Q 14.5 44.390625 14.5 40.28125 
Q 14.5 37.15625 16.890625 35.375 
Q 19.28125 33.59375 26.515625 31.984375 
L 29.59375 31.296875 
Q 39.15625 29.25 43.1875 25.515625 
Q 47.21875 21.78125 47.21875 15.09375 
Q 47.21875 7.46875 41.1875 3.015625 
Q 35.15625 -1.421875 24.609375 -1.421875 
Q 20.21875 -1.421875 15.453125 -0.5625 
Q 10.6875 0.296875 5.421875 2 
L 5.421875 11.28125 
Q 10.40625 8.6875 15.234375 7.390625 
Q 20.0625 6.109375 24.8125 6.109375 
Q 31.15625 6.109375 34.5625 8.28125 
Q 37.984375 10.453125 37.984375 14.40625 
Q 37.984375 18.0625 35.515625 20.015625 
Q 33.0625 21.96875 24.703125 23.78125 
L 21.578125 24.515625 
Q 13.234375 26.265625 9.515625 29.90625 
Q 5.8125 33.546875 5.8125 39.890625 
Q 5.8125 47.609375 11.28125 51.796875 
Q 16.75 56 26.8125 56 
Q 31.78125 56 36.171875 55.265625 
Q 40.578125 54.546875 44.28125 53.078125 
z
" id="DejaVuSans-115"/>
       </defs>
       <use xlink:href="#DejaVuSans-48"/>
       <use x="63.623047" xlink:href="#DejaVuSans-32"/>
       <use x="95.410156" xlink:href="#DejaVuSans-181"/>
       <use x="159.033203" xlink:href="#DejaVuSans-115"/>
      </g>
     </g>
    </g>
    <g id="ytick_2">
     <g id="line2d_13">
      <path clip-path="url(#p4a888a2eee)" d="M 65.315625 200.922024 
L 565.2 200.922024 
" style="fill:none;stroke:#b0b0b0;stroke-linecap:square;stroke-opacity:0.3;stroke-width:0.8;"/>
     </g>
     <g id="line2d_14">
      <g>
       <use style="stroke:#000000;stroke-width:0.8;" x="65.315625" xlink:href="#m4585e3fd8d" y="200.922024"/>
      </g>
     </g>
     <g id="text_7">
      <!-- 100 s -->
      <g transform="translate(24.478125 204.721243)scale(0.1 -0.1)">
       <use xlink:href="#DejaVuSans-49"/>
       <use x="63.623047" xlink:href="#DejaVuSans-48"/>
       <use x="127.246094" xlink:href="#DejaVuSans-48"/>
       <use x="190.869141" xlink:href="#DejaVuSans-32"/>
       <use x="222.65625" xlink:href="#DejaVuSans-181"/>
       <use x="286.279297" xlink:href="#DejaVuSans-115"/>
      </g>
     </g>
    </g>
    <g id="ytick_3">
     <g id="line2d_15">
      <path clip-path="url(#p4a888a2eee)" d="M 65.315625 157.048759 
L 565.2 157.048759 
" style="fill:none;stroke:#b0b0b0;stroke-linecap:square;stroke-opacity:0.3;stroke-width:0.8;"/>
     </g>
     <g id="line2d_16">
      <g>
       <use style="stroke:#000000;stroke-width:0.8;" x="65.315625" xlink:href="#m4585e3fd8d" y="157.048759"/>
      </g>
     </g>
     <g id="text_8">
      <!-- 200 s -->
      <g transform="translate(24.478125 160.847978)scale(0.1 -0.1)">
       <use xlink:href="#DejaVuSans-50"/>
       <use x="63.623047" xlink:href="#DejaVuSans-48"/>
       <use x="127.246094" xlink:href="#DejaVuSans-48"/>
       <use x="190.869141" xlink:href="#DejaVuSans-32"/>
       <use x="222.65625" xlink:href="#DejaVuSans-181"/>
       <use x="286.279297" xlink:href="#DejaVuSans-115"/>
      </g>
     </g>
    </g>
    <g id="ytick_4">
     <g id="line2d_17">
      <path clip-path="url(#p4a888a2eee)" d="M 65.315625 113.175494 
L 565.2 113.175494 
" style="fill:none;stroke:#b0b0b0;stroke-linecap:square;stroke-opacity:0.3;stroke-width:0.8;"/>
     </g>
     <g id="line2d_18">
      <g>
       <use style="stroke:#000000;stroke-width:0.8;" x="65.315625" xlink:href="#m4585e3fd8d" y="113.175494"/>
      </g>
     </g>
     <g id="text_9">
      <!-- 300 s -->
      <g transform="translate(24.478125 116.974713)scale(0.1 -0.1)">
       <defs>
        <path d="M 40.578125 39.3125 
Q 47.65625 37.796875 51.625 33 
Q 55.609375 28.21875 55.609375 21.1875 
Q 55.609375 10.40625 48.1875 4.484375 
Q 40.765625 -1.421875 27.09375 -1.421875 
Q 22.515625 -1.421875 17.65625 -0.515625 
Q 12.796875 0.390625 7.625 2.203125 
L 7.625 11.71875 
Q 11.71875 9.328125 16.59375 8.109375 
Q 21.484375 6.890625 26.8125 6.890625 
Q 36.078125 6.890625 40.9375 10.546875 
Q 45.796875 14.203125 45.796875 21.1875 
Q 45.796875 27.640625 41.28125 31.265625 
Q 36.765625 34.90625 28.71875 34.90625 
L 20.21875 34.90625 
L 20.21875 43.015625 
L 29.109375 43.015625 
Q 36.375 43.015625 40.234375 45.921875 
Q 44.09375 48.828125 44.09375 54.296875 
Q 44.09375 59.90625 40.109375 62.90625 
Q 36.140625 65.921875 28.71875 65.921875 
Q 24.65625 65.921875 20.015625 65.03125 
Q 15.375 64.15625 9.8125 62.3125 
L 9.8125 71.09375 
Q 15.4375 72.65625 20.34375 73.4375 
Q 25.25 74.21875 29.59375 74.21875 
Q 40.828125 74.21875 47.359375 69.109375 
Q 53.90625 64.015625 53.90625 55.328125 
Q 53.90625 49.265625 50.4375 45.09375 
Q 46.96875 40.921875 40.578125 39.3125 
z
" id="DejaVuSans-51"/>
       </defs>
       <use xlink:href="#DejaVuSans-51"/>
       <use x="63.623047" xlink:href="#DejaVuSans-48"/>
       <use x="127.246094" xlink:href="#DejaVuSans-48"/>
       <use x="190.869141" xlink:href="#DejaVuSans-32"/>
       <use x="222.65625" xlink:href="#DejaVuSans-181"/>
       <use x="286.279297" xlink:href="#DejaVuSans-115"/>
      </g>
     </g>
    </g>
    <g id="ytick_5">
     <g id="line2d_19">
      <path clip-path="url(#p4a888a2eee)" d="M 65.315625 69.302229 
L 565.2 69.302229 
" style="fill:none;stroke:#b0b0b0;stroke-linecap:square;stroke-opacity:0.3;stroke-width:0.8;"/>
     </g>
     <g id="line2d_20">
      <g>
       <use style="stroke:#000000;stroke-width:0.8;" x="65.315625" xlink:href="#m4585e3fd8d" y="69.302229"/>
      </g>
     </g>
     <g id="text_10">
      <!-- 400 s -->
      <g transform="translate(24.478125 73.101448)scale(0.1 -0.1)">
       <use xlink:href="#DejaVuSans-52"/>
       <use x="63.623047" xlink:href="#DejaVuSans-48"/>
       <use x="127.246094" xlink:href="#DejaVuSans-48"/>
       <use x="190.869141" xlink:href="#DejaVuSans-32"/>
       <use x="222.65625" xlink:href="#DejaVuSans-181"/>
       <use x="286.279297" xlink:href="#DejaVuSans-115"/>
      </g>
     </g>
    </g>
    <g id="text_11">
     <!-- frequency switch latency -->
     <g transform="translate(18.398438 204.658207)rotate(-90)scale(0.1 -0.1)">
      <defs>
       <path d="M 37.109375 75.984375 
L 37.109375 68.5 
L 28.515625 68.5 
Q 23.6875 68.5 21.796875 66.546875 
Q 19.921875 64.59375 19.921875 59.515625 
L 19.921875 54.6875 
L 34.71875 54.6875 
L 34.71875 47.703125 
L 19.921875 47.703125 
L 19.921875 0 
L 10.890625 0 
L 10.890625 47.703125 
L 2.296875 47.703125 
L 2.296875 54.6875 
L 10.890625 54.6875 
L 10.890625 58.5 
Q 10.890625 67.625 15.140625 71.796875 
Q 19.390625 75.984375 28.609375 75.984375 
z
" id="DejaVuSans-102"/>
       <path d="M 14.796875 27.296875 
Q 14.796875 17.390625 18.875 11.75 
Q 22.953125 6.109375 30.078125 6.109375 
Q 37.203125 6.109375 41.296875 11.75 
Q 45.40625 17.390625 45.40625 27.296875 
Q 45.40625 37.203125 41.296875 42.84375 
Q 37.203125 48.484375 30.078125 48.484375 
Q 22.953125 48.484375 18.875 42.84375 
Q 14.796875 37.203125 14.796875 27.296875 
z
M 45.40625 8.203125 
Q 42.578125 3.328125 38.25 0.953125 
Q 33.9375 -1.421875 27.875 -1.421875 
Q 17.96875 -1.421875 11.734375 6.484375 
Q 5.515625 14.40625 5.515625 27.296875 
Q 5.515625 40.1875 11.734375 48.09375 
Q 17.96875 56 27.875 56 
Q 33.9375 56 38.25 53.625 
Q 42.578125 51.265625 45.40625 46.390625 
L 45.40625 54.6875 
L 54.390625 54.6875 
L 54.390625 -20.796875 
L 45.40625 -20.796875 
z
" id="DejaVuSans-113"/>
       <path d="M 8.5 21.578125 
L 8.5 54.6875 
L 17.484375 54.6875 
L 17.484375 21.921875 
Q 17.484375 14.15625 20.5 10.265625 
Q 23.53125 6.390625 29.59375 6.390625 
Q 36.859375 6.390625 41.078125 11.03125 
Q 45.3125 15.671875 45.3125 23.6875 
L 45.3125 54.6875 
L 54.296875 54.6875 
L 54.296875 0 
L 45.3125 0 
L 45.3125 8.40625 
Q 42.046875 3.421875 37.71875 1 
Q 33.40625 -1.421875 27.6875 -1.421875 
Q 18.265625 -1.421875 13.375 4.4375 
Q 8.5 10.296875 8.5 21.578125 
z
M 31.109375 56 
z
" id="DejaVuSans-117"/>
       <path d="M 48.78125 52.59375 
L 48.78125 44.1875 
Q 44.96875 46.296875 41.140625 47.34375 
Q 37.3125 48.390625 33.40625 48.390625 
Q 24.65625 48.390625 19.8125 42.84375 
Q 14.984375 37.3125 14.984375 27.296875 
Q 14.984375 17.28125 19.8125 11.734375 
Q 24.65625 6.203125 33.40625 6.203125 
Q 37.3125 6.203125 41.140625 7.25 
Q 44.96875 8.296875 48.78125 10.40625 
L 48.78125 2.09375 
Q 45.015625 0.34375 40.984375 -0.53125 
Q 36.96875 -1.421875 32.421875 -1.421875 
Q 20.0625 -1.421875 12.78125 6.34375 
Q 5.515625 14.109375 5.515625 27.296875 
Q 5.515625 40.671875 12.859375 48.328125 
Q 20.21875 56 33.015625 56 
Q 37.15625 56 41.109375 55.140625 
Q 45.0625 54.296875 48.78125 52.59375 
z
" id="DejaVuSans-99"/>
       <path d="M 32.171875 -5.078125 
Q 28.375 -14.84375 24.75 -17.8125 
Q 21.140625 -20.796875 15.09375 -20.796875 
L 7.90625 -20.796875 
L 7.90625 -13.28125 
L 13.1875 -13.28125 
Q 16.890625 -13.28125 18.9375 -11.515625 
Q 21 -9.765625 23.484375 -3.21875 
L 25.09375 0.875 
L 2.984375 54.6875 
L 12.5 54.6875 
L 29.59375 11.921875 
L 46.6875 54.6875 
L 56.203125 54.6875 
z
" id="DejaVuSans-121"/>
       <path d="M 4.203125 54.6875 
L 13.1875 54.6875 
L 24.421875 12.015625 
L 35.59375 54.6875 
L 46.1875 54.6875 
L 57.421875 12.015625 
L 68.609375 54.6875 
L 77.59375 54.6875 
L 63.28125 0 
L 52.6875 0 
L 40.921875 44.828125 
L 29.109375 0 
L 18.5 0 
z
" id="DejaVuSans-119"/>
       <path d="M 54.890625 33.015625 
L 54.890625 0 
L 45.90625 0 
L 45.90625 32.71875 
Q 45.90625 40.484375 42.875 44.328125 
Q 39.84375 48.1875 33.796875 48.1875 
Q 26.515625 48.1875 22.3125 43.546875 
Q 18.109375 38.921875 18.109375 30.90625 
L 18.109375 0 
L 9.078125 0 
L 9.078125 75.984375 
L 18.109375 75.984375 
L 18.109375 46.1875 
Q 21.34375 51.125 25.703125 53.5625 
Q 30.078125 56 35.796875 56 
Q 45.21875 56 50.046875 50.171875 
Q 54.890625 44.34375 54.890625 33.015625 
z
" id="DejaVuSans-104"/>
      </defs>
      <use xlink:href="#DejaVuSans-102"/>
      <use x="35.205078" xlink:href="#DejaVuSans-114"/>
      <use x="74.068359" xlink:href="#DejaVuSans-101"/>
      <use x="135.591797" xlink:href="#DejaVuSans-113"/>
      <use x="199.068359" xlink:href="#DejaVuSans-117"/>
      <use x="262.447266" xlink:href="#DejaVuSans-101"/>
      <use x="323.970703" xlink:href="#DejaVuSans-110"/>
      <use x="387.349609" xlink:href="#DejaVuSans-99"/>
      <use x="442.330078" xlink:href="#DejaVuSans-121"/>
      <use x="501.509766" xlink:href="#DejaVuSans-32"/>
      <use x="533.296875" xlink:href="#DejaVuSans-115"/>
      <use x="585.396484" xlink:href="#DejaVuSans-119"/>
      <use x="667.183594" xlink:href="#DejaVuSans-105"/>
      <use x="694.966797" xlink:href="#DejaVuSans-116"/>
      <use x="734.175781" xlink:href="#DejaVuSans-99"/>
      <use x="789.15625" xlink:href="#DejaVuSans-104"/>
      <use x="852.535156" xlink:href="#DejaVuSans-32"/>
      <use x="884.322266" xlink:href="#DejaVuSans-108"/>
      <use x="912.105469" xlink:href="#DejaVuSans-97"/>
      <use x="973.384766" xlink:href="#DejaVuSans-116"/>
      <use x="1012.59375" xlink:href="#DejaVuSans-101"/>
      <use x="1074.117188" xlink:href="#DejaVuSans-110"/>
      <use x="1137.496094" xlink:href="#DejaVuSans-99"/>
      <use x="1192.476562" xlink:href="#DejaVuSans-121"/>
     </g>
    </g>
   </g>
   <g id="line2d_21">
    <path clip-path="url(#p4a888a2eee)" d="M 76.397713 189.846756 
L 154.210412 189.846756 
" style="fill:none;stroke:#515151;stroke-dasharray:3.375,3.375;stroke-dashoffset:0;stroke-width:1.5;"/>
   </g>
   <g id="line2d_22">
    <path clip-path="url(#p4a888a2eee)" d="M 75.71322 185.056205 
L 154.894905 185.056205 
" style="fill:none;stroke:#515151;stroke-dasharray:6.75,6.75;stroke-dashoffset:0;stroke-width:1.5;"/>
   </g>
   <g id="line2d_23">
    <path clip-path="url(#p4a888a2eee)" d="M 82.596219 175.240626 
L 148.011906 175.240626 
" style="fill:none;stroke:#515151;stroke-dasharray:3.375,3.375;stroke-dashoffset:0;stroke-width:1.5;"/>
   </g>
   <g id="line2d_24">
    <path clip-path="url(#p4a888a2eee)" d="M 177.658018 176.100956 
L 252.903857 176.100956 
" style="fill:none;stroke:#515151;stroke-dasharray:3.375,3.375;stroke-dashoffset:0;stroke-width:1.5;"/>
   </g>
   <g id="line2d_25">
    <path clip-path="url(#p4a888a2eee)" d="M 176.322987 170.792758 
L 254.238888 170.792758 
" style="fill:none;stroke:#515151;stroke-dasharray:6.75,6.75;stroke-dashoffset:0;stroke-width:1.5;"/>
   </g>
   <g id="line2d_26">
    <path clip-path="url(#p4a888a2eee)" d="M 191.085349 157.80077 
L 239.476526 157.80077 
" style="fill:none;stroke:#515151;stroke-dasharray:3.375,3.375;stroke-dashoffset:0;stroke-width:1.5;"/>
   </g>
   <g id="line2d_27">
    <path clip-path="url(#p4a888a2eee)" d="M 278.161505 162.736045 
L 352.35412 162.736045 
" style="fill:none;stroke:#515151;stroke-dasharray:3.375,3.375;stroke-dashoffset:0;stroke-width:1.5;"/>
   </g>
   <g id="line2d_28">
    <path clip-path="url(#p4a888a2eee)" d="M 276.483657 155.6744 
L 354.031968 155.6744 
" style="fill:none;stroke:#515151;stroke-dasharray:6.75,6.75;stroke-dashoffset:0;stroke-width:1.5;"/>
   </g>
   <g id="line2d_29">
    <path clip-path="url(#p4a888a2eee)" d="M 289.09503 146.252255 
L 341.420595 146.252255 
" style="fill:none;stroke:#515151;stroke-dasharray:3.375,3.375;stroke-dashoffset:0;stroke-width:1.5;"/>
   </g>
   <g id="line2d_30">
    <path clip-path="url(#p4a888a2eee)" d="M 378.074431 185.141075 
L 452.394944 185.141075 
" style="fill:none;stroke:#515151;stroke-dasharray:3.375,3.375;stroke-dashoffset:0;stroke-width:1.5;"/>
   </g>
   <g id="line2d_31">
    <path clip-path="url(#p4a888a2eee)" d="M 375.919855 180.182674 
L 454.54952 180.182674 
" style="fill:none;stroke:#515151;stroke-dasharray:6.75,6.75;stroke-dashoffset:0;stroke-width:1.5;"/>
   </g>
   <g id="line2d_32">
    <path clip-path="url(#p4a888a2eee)" d="M 384.076984 174.254968 
L 446.392391 174.254968 
" style="fill:none;stroke:#515151;stroke-dasharray:3.375,3.375;stroke-dashoffset:0;stroke-width:1.5;"/>
   </g>
   <g id="line2d_33">
    <path clip-path="url(#p4a888a2eee)" d="M 477.499315 188.303446 
L 552.92381 188.303446 
" style="fill:none;stroke:#515151;stroke-dasharray:3.375,3.375;stroke-dashoffset:0;stroke-width:1.5;"/>
   </g>
   <g id="line2d_34">
    <path clip-path="url(#p4a888a2eee)" d="M 475.856327 182.136765 
L 554.566798 182.136765 
" style="fill:none;stroke:#515151;stroke-dasharray:6.75,6.75;stroke-dashoffset:0;stroke-width:1.5;"/>
   </g>
   <g id="line2d_35">
    <path clip-path="url(#p4a888a2eee)" d="M 480.625528 175.899481 
L 549.797597 175.899481 
" style="fill:none;stroke:#515151;stroke-dasharray:3.375,3.375;stroke-dashoffset:0;stroke-width:1.5;"/>
   </g>
   <g id="patch_3">
    <path d="M 65.315625 244.795289 
L 65.315625 39.3555 
" style="fill:none;stroke:#000000;stroke-linecap:square;stroke-linejoin:miter;stroke-width:0.8;"/>
   </g>
   <g id="patch_4">
    <path d="M 565.2 244.795289 
L 565.2 39.3555 
" style="fill:none;stroke:#000000;stroke-linecap:square;stroke-linejoin:miter;stroke-width:0.8;"/>
   </g>
   <g id="patch_5">
    <path d="M 65.315625 244.795289 
L 565.2 244.795289 
" style="fill:none;stroke:#000000;stroke-linecap:square;stroke-linejoin:miter;stroke-width:0.8;"/>
   </g>
   <g id="patch_6">
    <path d="M 65.315625 39.3555 
L 565.2 39.3555 
" style="fill:none;stroke:#000000;stroke-linecap:square;stroke-linejoin:miter;stroke-width:0.8;"/>
   </g>
   <g id="text_12">
    <!-- Coremark  4 threads (A53 cluster) -->
    <g transform="translate(209.94375 19.918125)scale(0.12 -0.12)">
     <defs>
      <path d="M 64.40625 67.28125 
L 64.40625 56.890625 
Q 59.421875 61.53125 53.78125 63.8125 
Q 48.140625 66.109375 41.796875 66.109375 
Q 29.296875 66.109375 22.65625 58.46875 
Q 16.015625 50.828125 16.015625 36.375 
Q 16.015625 21.96875 22.65625 14.328125 
Q 29.296875 6.6875 41.796875 6.6875 
Q 48.140625 6.6875 53.78125 8.984375 
Q 59.421875 11.28125 64.40625 15.921875 
L 64.40625 5.609375 
Q 59.234375 2.09375 53.4375 0.328125 
Q 47.65625 -1.421875 41.21875 -1.421875 
Q 24.65625 -1.421875 15.125 8.703125 
Q 5.609375 18.84375 5.609375 36.375 
Q 5.609375 53.953125 15.125 64.078125 
Q 24.65625 74.21875 41.21875 74.21875 
Q 47.75 74.21875 53.53125 72.484375 
Q 59.328125 70.75 64.40625 67.28125 
z
" id="DejaVuSans-67"/>
      <path d="M 30.609375 48.390625 
Q 23.390625 48.390625 19.1875 42.75 
Q 14.984375 37.109375 14.984375 27.296875 
Q 14.984375 17.484375 19.15625 11.84375 
Q 23.34375 6.203125 30.609375 6.203125 
Q 37.796875 6.203125 41.984375 11.859375 
Q 46.1875 17.53125 46.1875 27.296875 
Q 46.1875 37.015625 41.984375 42.703125 
Q 37.796875 48.390625 30.609375 48.390625 
z
M 30.609375 56 
Q 42.328125 56 49.015625 48.375 
Q 55.71875 40.765625 55.71875 27.296875 
Q 55.71875 13.875 49.015625 6.21875 
Q 42.328125 -1.421875 30.609375 -1.421875 
Q 18.84375 -1.421875 12.171875 6.21875 
Q 5.515625 13.875 5.515625 27.296875 
Q 5.515625 40.765625 12.171875 48.375 
Q 18.84375 56 30.609375 56 
z
" id="DejaVuSans-111"/>
      <path d="M 52 44.1875 
Q 55.375 50.25 60.0625 53.125 
Q 64.75 56 71.09375 56 
Q 79.640625 56 84.28125 50.015625 
Q 88.921875 44.046875 88.921875 33.015625 
L 88.921875 0 
L 79.890625 0 
L 79.890625 32.71875 
Q 79.890625 40.578125 77.09375 44.375 
Q 74.3125 48.1875 68.609375 48.1875 
Q 61.625 48.1875 57.5625 43.546875 
Q 53.515625 38.921875 53.515625 30.90625 
L 53.515625 0 
L 44.484375 0 
L 44.484375 32.71875 
Q 44.484375 40.625 41.703125 44.40625 
Q 38.921875 48.1875 33.109375 48.1875 
Q 26.21875 48.1875 22.15625 43.53125 
Q 18.109375 38.875 18.109375 30.90625 
L 18.109375 0 
L 9.078125 0 
L 9.078125 54.6875 
L 18.109375 54.6875 
L 18.109375 46.1875 
Q 21.1875 51.21875 25.484375 53.609375 
Q 29.78125 56 35.6875 56 
Q 41.65625 56 45.828125 52.96875 
Q 50 49.953125 52 44.1875 
z
" id="DejaVuSans-109"/>
      <path d="M 9.078125 75.984375 
L 18.109375 75.984375 
L 18.109375 31.109375 
L 44.921875 54.6875 
L 56.390625 54.6875 
L 27.390625 29.109375 
L 57.625 0 
L 45.90625 0 
L 18.109375 26.703125 
L 18.109375 0 
L 9.078125 0 
z
" id="DejaVuSans-107"/>
      <path d="M 4.890625 30.90625 
L 45.125 30.90625 
L 45.125 23.875 
L 4.890625 23.875 
z
" id="DejaVuSans-8211"/>
      <path d="M 45.40625 46.390625 
L 45.40625 75.984375 
L 54.390625 75.984375 
L 54.390625 0 
L 45.40625 0 
L 45.40625 8.203125 
Q 42.578125 3.328125 38.25 0.953125 
Q 33.9375 -1.421875 27.875 -1.421875 
Q 17.96875 -1.421875 11.734375 6.484375 
Q 5.515625 14.40625 5.515625 27.296875 
Q 5.515625 40.1875 11.734375 48.09375 
Q 17.96875 56 27.875 56 
Q 33.9375 56 38.25 53.625 
Q 42.578125 51.265625 45.40625 46.390625 
z
M 14.796875 27.296875 
Q 14.796875 17.390625 18.875 11.75 
Q 22.953125 6.109375 30.078125 6.109375 
Q 37.203125 6.109375 41.296875 11.75 
Q 45.40625 17.390625 45.40625 27.296875 
Q 45.40625 37.203125 41.296875 42.84375 
Q 37.203125 48.484375 30.078125 48.484375 
Q 22.953125 48.484375 18.875 42.84375 
Q 14.796875 37.203125 14.796875 27.296875 
z
" id="DejaVuSans-100"/>
      <path d="M 31 75.875 
Q 24.46875 64.65625 21.28125 53.65625 
Q 18.109375 42.671875 18.109375 31.390625 
Q 18.109375 20.125 21.3125 9.0625 
Q 24.515625 -2 31 -13.1875 
L 23.1875 -13.1875 
Q 15.875 -1.703125 12.234375 9.375 
Q 8.59375 20.453125 8.59375 31.390625 
Q 8.59375 42.28125 12.203125 53.3125 
Q 15.828125 64.359375 23.1875 75.875 
z
" id="DejaVuSans-40"/>
      <path d="M 34.1875 63.1875 
L 20.796875 26.90625 
L 47.609375 26.90625 
z
M 28.609375 72.90625 
L 39.796875 72.90625 
L 67.578125 0 
L 57.328125 0 
L 50.6875 18.703125 
L 17.828125 18.703125 
L 11.1875 0 
L 0.78125 0 
z
" id="DejaVuSans-65"/>
      <path d="M 10.796875 72.90625 
L 49.515625 72.90625 
L 49.515625 64.59375 
L 19.828125 64.59375 
L 19.828125 46.734375 
Q 21.96875 47.46875 24.109375 47.828125 
Q 26.265625 48.1875 28.421875 48.1875 
Q 40.625 48.1875 47.75 41.5 
Q 54.890625 34.8125 54.890625 23.390625 
Q 54.890625 11.625 47.5625 5.09375 
Q 40.234375 -1.421875 26.90625 -1.421875 
Q 22.3125 -1.421875 17.546875 -0.640625 
Q 12.796875 0.140625 7.71875 1.703125 
L 7.71875 11.625 
Q 12.109375 9.234375 16.796875 8.0625 
Q 21.484375 6.890625 26.703125 6.890625 
Q 35.15625 6.890625 40.078125 11.328125 
Q 45.015625 15.765625 45.015625 23.390625 
Q 45.015625 31 40.078125 35.4375 
Q 35.15625 39.890625 26.703125 39.890625 
Q 22.75 39.890625 18.8125 39.015625 
Q 14.890625 38.140625 10.796875 36.28125 
z
" id="DejaVuSans-53"/>
      <path d="M 8.015625 75.875 
L 15.828125 75.875 
Q 23.140625 64.359375 26.78125 53.3125 
Q 30.421875 42.28125 30.421875 31.390625 
Q 30.421875 20.453125 26.78125 9.375 
Q 23.140625 -1.703125 15.828125 -13.1875 
L 8.015625 -13.1875 
Q 14.5 -2 17.703125 9.0625 
Q 20.90625 20.125 20.90625 31.390625 
Q 20.90625 42.671875 17.703125 53.65625 
Q 14.5 64.65625 8.015625 75.875 
z
" id="DejaVuSans-41"/>
     </defs>
     <use xlink:href="#DejaVuSans-67"/>
     <use x="69.824219" xlink:href="#DejaVuSans-111"/>
     <use x="131.005859" xlink:href="#DejaVuSans-114"/>
     <use x="169.869141" xlink:href="#DejaVuSans-101"/>
     <use x="231.392578" xlink:href="#DejaVuSans-109"/>
     <use x="328.804688" xlink:href="#DejaVuSans-97"/>
     <use x="390.083984" xlink:href="#DejaVuSans-114"/>
     <use x="431.197266" xlink:href="#DejaVuSans-107"/>
     <use x="489.107422" xlink:href="#DejaVuSans-32"/>
     <use x="520.894531" xlink:href="#DejaVuSans-8211"/>
     <use x="570.894531" xlink:href="#DejaVuSans-32"/>
     <use x="602.681641" xlink:href="#DejaVuSans-52"/>
     <use x="666.304688" xlink:href="#DejaVuSans-32"/>
     <use x="698.091797" xlink:href="#DejaVuSans-116"/>
     <use x="737.300781" xlink:href="#DejaVuSans-104"/>
     <use x="800.679688" xlink:href="#DejaVuSans-114"/>
     <use x="839.542969" xlink:href="#DejaVuSans-101"/>
     <use x="901.066406" xlink:href="#DejaVuSans-97"/>
     <use x="962.345703" xlink:href="#DejaVuSans-100"/>
     <use x="1025.822266" xlink:href="#DejaVuSans-115"/>
     <use x="1077.921875" xlink:href="#DejaVuSans-32"/>
     <use x="1109.708984" xlink:href="#DejaVuSans-40"/>
     <use x="1148.722656" xlink:href="#DejaVuSans-65"/>
     <use x="1217.130859" xlink:href="#DejaVuSans-53"/>
     <use x="1280.753906" xlink:href="#DejaVuSans-51"/>
     <use x="1344.376953" xlink:href="#DejaVuSans-32"/>
     <use x="1376.164062" xlink:href="#DejaVuSans-99"/>
     <use x="1431.144531" xlink:href="#DejaVuSans-108"/>
     <use x="1458.927734" xlink:href="#DejaVuSans-117"/>
     <use x="1522.306641" xlink:href="#DejaVuSans-115"/>
     <use x="1574.40625" xlink:href="#DejaVuSans-116"/>
     <use x="1613.615234" xlink:href="#DejaVuSans-101"/>
     <use x="1675.138672" xlink:href="#DejaVuSans-114"/>
     <use x="1716.251953" xlink:href="#DejaVuSans-41"/>
    </g>
    <!-- alternating frequencies in a 1ms interval -->
    <g transform="translate(193.030313 33.3555)scale(0.12 -0.12)">
     <defs>
      <path d="M 2.984375 54.6875 
L 12.5 54.6875 
L 29.59375 8.796875 
L 46.6875 54.6875 
L 56.203125 54.6875 
L 35.6875 0 
L 23.484375 0 
z
" id="DejaVuSans-118"/>
     </defs>
     <use xlink:href="#DejaVuSans-97"/>
     <use x="61.279297" xlink:href="#DejaVuSans-108"/>
     <use x="89.0625" xlink:href="#DejaVuSans-116"/>
     <use x="128.271484" xlink:href="#DejaVuSans-101"/>
     <use x="189.794922" xlink:href="#DejaVuSans-114"/>
     <use x="229.158203" xlink:href="#DejaVuSans-110"/>
     <use x="292.537109" xlink:href="#DejaVuSans-97"/>
     <use x="353.816406" xlink:href="#DejaVuSans-116"/>
     <use x="393.025391" xlink:href="#DejaVuSans-105"/>
     <use x="420.808594" xlink:href="#DejaVuSans-110"/>
     <use x="484.1875" xlink:href="#DejaVuSans-103"/>
     <use x="547.664062" xlink:href="#DejaVuSans-32"/>
     <use x="579.451172" xlink:href="#DejaVuSans-102"/>
     <use x="614.65625" xlink:href="#DejaVuSans-114"/>
     <use x="653.519531" xlink:href="#DejaVuSans-101"/>
     <use x="715.042969" xlink:href="#DejaVuSans-113"/>
     <use x="778.519531" xlink:href="#DejaVuSans-117"/>
     <use x="841.898438" xlink:href="#DejaVuSans-101"/>
     <use x="903.421875" xlink:href="#DejaVuSans-110"/>
     <use x="966.800781" xlink:href="#DejaVuSans-99"/>
     <use x="1021.78125" xlink:href="#DejaVuSans-105"/>
     <use x="1049.564453" xlink:href="#DejaVuSans-101"/>
     <use x="1111.087891" xlink:href="#DejaVuSans-115"/>
     <use x="1163.1875" xlink:href="#DejaVuSans-32"/>
     <use x="1194.974609" xlink:href="#DejaVuSans-105"/>
     <use x="1222.757812" xlink:href="#DejaVuSans-110"/>
     <use x="1286.136719" xlink:href="#DejaVuSans-32"/>
     <use x="1317.923828" xlink:href="#DejaVuSans-97"/>
     <use x="1379.203125" xlink:href="#DejaVuSans-32"/>
     <use x="1410.990234" xlink:href="#DejaVuSans-49"/>
     <use x="1474.613281" xlink:href="#DejaVuSans-109"/>
     <use x="1572.025391" xlink:href="#DejaVuSans-115"/>
     <use x="1624.125" xlink:href="#DejaVuSans-32"/>
     <use x="1655.912109" xlink:href="#DejaVuSans-105"/>
     <use x="1683.695312" xlink:href="#DejaVuSans-110"/>
     <use x="1747.074219" xlink:href="#DejaVuSans-116"/>
     <use x="1786.283203" xlink:href="#DejaVuSans-101"/>
     <use x="1847.806641" xlink:href="#DejaVuSans-114"/>
     <use x="1888.919922" xlink:href="#DejaVuSans-118"/>
     <use x="1948.099609" xlink:href="#DejaVuSans-97"/>
     <use x="2009.378906" xlink:href="#DejaVuSans-108"/>
    </g>
   </g>
  </g>
 </g>
 <defs>
  <clipPath id="p4a888a2eee">
   <rect height="205.439789" width="499.884375" x="65.315625" y="39.3555"/>
  </clipPath>
 </defs>
</svg>
